<svg width="18" height="18" viewBox="0 0 18 18" fill="none" xmlns="http://www.w3.org/2000/svg">
<path opacity="0.5" d="M17.6203 4.02959C17.5178 3.63697 17.3173 3.27898 17.0386 2.99147C16.76 2.70396 16.413 2.49701 16.0325 2.39133C14.6311 2 9 2 9 2C9 2 3.36887 2 1.96752 2.39133C1.587 2.49701 1.24005 2.70396 0.961397 2.99147C0.682748 3.27898 0.482174 3.63697 0.379749 4.02959C0.118085 5.50421 -0.00889312 7.0009 0.000483683 8.5C-0.00889312 9.9991 0.118085 11.4958 0.379749 12.9704C0.482174 13.363 0.682748 13.721 0.961397 14.0085C1.24005 14.296 1.587 14.503 1.96752 14.6087C3.36887 15 9 15 9 15C9 15 14.6311 15 16.0325 14.6087C16.413 14.503 16.76 14.296 17.0386 14.0085C17.3173 13.721 17.5178 13.363 17.6203 12.9704C17.8819 11.4958 18.0089 9.9991 17.9995 8.5C18.0089 7.0009 17.8819 5.50421 17.6203 4.02959ZM7.2001 11.2857V5.71429L11.8734 8.5L7.2001 11.2857Z" fill="#A8A8BE"/>
</svg>
