<svg width="18" height="18" viewBox="0 0 18 18" fill="none" xmlns="http://www.w3.org/2000/svg">
<g opacity="0.5">
<path d="M8.27941 5.15129C8.27941 6.8917 6.87372 8.30258 5.13971 8.30258C3.40569 8.30258 2 6.8917 2 5.15129C2 3.41088 3.40569 2 5.13971 2C6.87372 2 8.27941 3.41088 8.27941 5.15129Z" fill="#A8A8BE"/>
<path d="M6.94118 12.1771C6.94118 13.1757 6.13463 13.9852 5.13971 13.9852C4.14478 13.9852 3.33824 13.1757 3.33824 12.1771C3.33824 11.1785 4.14478 10.369 5.13971 10.369C6.13463 10.369 6.94118 11.1785 6.94118 12.1771Z" fill="#A8A8BE"/>
<path d="M14.6618 5.15129C14.6618 6.52079 13.5556 7.631 12.1912 7.631C10.8267 7.631 9.72059 6.52079 9.72059 5.15129C9.72059 3.78179 10.8267 2.67159 12.1912 2.67159C13.5556 2.67159 14.6618 3.78179 14.6618 5.15129Z" fill="#A8A8BE"/>
<path d="M16 12.2546C16 14.3231 14.3293 16 12.2684 16C10.2075 16 8.53676 14.3231 8.53676 12.2546C8.53676 10.1861 10.2075 8.50922 12.2684 8.50922C14.3293 8.50922 16 10.1861 16 12.2546Z" fill="#A8A8BE"/>
</g>
</svg>
