<svg id="Isolation_Mode" data-name="Isolation Mode" xmlns="http://www.w3.org/2000/svg" viewBox="0 0 273 93"><defs><style>.cls-1{fill:#ebecec;}.cls-1,.cls-4,.cls-5,.cls-6{fill-rule:evenodd;}.cls-2,.cls-5{fill:#0178a0;}.cls-3,.cls-6{fill:#044e66;}.cls-4{fill:#47b7cd;}</style></defs><title>logo-273x93</title><polygon class="cls-1" points="8.84 56.67 8.84 56.67 17.3 56.67 27.85 76.94 46.71 76.94 36.16 56.69 36.1 56.69 56.5 27.85 49.24 13.73 17.29 56.67 8.84 56.67 8.84 56.67"/><path class="cls-2" d="M129.1,13.18H114.89L105,75.12h8.91l1.68-11.24h11.92l1.68,11.24H139L129.1,13.18h0Zm-7.59,11,4.68,31.32h-9.36l4.68-31.32h0Zm43.28,51h10l-13.5-34.33,13.5-27.61h-9.71l-12.71,27v-27h-9.71V75.12h9.71v-19l3-5.66,9.44,24.69h0Zm27.83-61.94h-14.3V75.12H188V51.85h4.59c9.71,0,14.47-5.4,14.47-15.31V28.49c0-9.91-4.77-15.31-14.47-15.31h0Zm0,8.85c3.09,0,4.77,1.42,4.77,5.84v9.29c0,4.42-1.68,5.84-4.77,5.84H188V22h4.59Zm27,5.4c0-4.42,1.94-6.11,5-6.11s5,1.68,5,6.11V60.87c0,4.42-1.94,6.11-5,6.11s-5-1.68-5-6.11V27.43h0ZM210,60.26c0,9.91,5.21,15.57,14.74,15.57s14.74-5.66,14.74-15.57V28c0-9.91-5.21-15.57-14.74-15.57S210,18.14,210,28V60.26h0ZM263.82,52v8.85c0,4.42-1.94,6-5,6s-5-1.59-5-6V27.43c0-4.42,1.94-6.11,5-6.11s5,1.68,5,6.11v6.64H273V28c0-9.91-4.94-15.57-14.47-15.57S244.05,18.14,244.05,28V60.26c0,9.91,4.94,15.57,14.47,15.57S273,70.17,273,60.26V52h-9.18Z"/><path class="cls-3" d="M109,91.57c0,0.11,0,.2,0,0.28a1.36,1.36,0,0,1,0,.2,0.52,0.52,0,0,1-.05.14,0.7,0.7,0,0,1-.11.13,1.37,1.37,0,0,1-.28.19,3.52,3.52,0,0,1-.51.22,4.52,4.52,0,0,1-1.51.25,4.37,4.37,0,0,1-1.57-.27,3.11,3.11,0,0,1-1.19-.81,3.56,3.56,0,0,1-.75-1.34,6,6,0,0,1-.26-1.86,5.91,5.91,0,0,1,.29-1.92,4,4,0,0,1,.8-1.41,3.34,3.34,0,0,1,1.24-.87,4.15,4.15,0,0,1,1.59-.3,4,4,0,0,1,1.29.22,3,3,0,0,1,.5.22,1.58,1.58,0,0,1,.31.21,0.86,0.86,0,0,1,.12.15,0.48,0.48,0,0,1,.05.15,1.67,1.67,0,0,1,0,.22c0,0.08,0,.18,0,0.31s0,0.24,0,.33a1,1,0,0,1,0,.22,0.33,0.33,0,0,1-.08.12,0.16,0.16,0,0,1-.11,0,0.46,0.46,0,0,1-.25-0.11,4.12,4.12,0,0,0-.39-0.26,3.15,3.15,0,0,0-.57-0.26,2.41,2.41,0,0,0-.79-0.11,1.93,1.93,0,0,0-.9.21,2,2,0,0,0-.67.59,2.81,2.81,0,0,0-.42.93,5.42,5.42,0,0,0,0,2.52,2.52,2.52,0,0,0,.44.9,1.75,1.75,0,0,0,.69.53,2.24,2.24,0,0,0,.91.18,2.58,2.58,0,0,0,.79-0.11,3.43,3.43,0,0,0,.57-0.24l0.39-.24a0.49,0.49,0,0,1,.24-0.11,0.17,0.17,0,0,1,.1,0A0.19,0.19,0,0,1,109,91a1.19,1.19,0,0,1,0,.22c0,0.1,0,.22,0,0.38h0Zm6.87-6.51a2.86,2.86,0,0,1,0,.33,0.84,0.84,0,0,1,0,.21,0.26,0.26,0,0,1-.08.12,0.16,0.16,0,0,1-.11,0h-2.12v6.85a0.18,0.18,0,0,1,0,.12,0.32,0.32,0,0,1-.14.08l-0.27.05-0.42,0-0.42,0L112,92.82a0.32,0.32,0,0,1-.14-0.08,0.19,0.19,0,0,1,0-.12V85.76H109.7a0.17,0.17,0,0,1-.11,0,0.3,0.3,0,0,1-.08-0.12,0.94,0.94,0,0,1,0-.21,2.78,2.78,0,0,1,0-.33,2.84,2.84,0,0,1,0-.33,1,1,0,0,1,0-.22,0.29,0.29,0,0,1,.08-0.12,0.17,0.17,0,0,1,.11,0h6a0.17,0.17,0,0,1,.11,0,0.26,0.26,0,0,1,.08.12,0.86,0.86,0,0,1,0,.22,2.93,2.93,0,0,1,0,.33h0Zm6.82,1.87a3.35,3.35,0,0,1-.22,1.27,2.4,2.4,0,0,1-.65.93,2.83,2.83,0,0,1-1,.58,4.8,4.8,0,0,1-1.46.2h-0.71v2.71a0.18,0.18,0,0,1,0,.12,0.32,0.32,0,0,1-.14.08l-0.26.05-0.42,0-0.42,0-0.26-.05a0.28,0.28,0,0,1-.14-0.08,0.2,0.2,0,0,1,0-.12V85a0.61,0.61,0,0,1,.16-0.46,0.58,0.58,0,0,1,.42-0.16h2l0.57,0a6.57,6.57,0,0,1,.65.1,2.89,2.89,0,0,1,.77.28,2.26,2.26,0,0,1,.67.52,2.16,2.16,0,0,1,.42.73,2.83,2.83,0,0,1,.14.93h0Zm-1.8.13a1.54,1.54,0,0,0-.16-0.74,1.09,1.09,0,0,0-.39-0.43,1.31,1.31,0,0,0-.48-0.17,3.55,3.55,0,0,0-.53,0h-0.74v2.89h0.78a1.91,1.91,0,0,0,.7-0.11,1.19,1.19,0,0,0,.46-0.31,1.36,1.36,0,0,0,.27-0.48,2,2,0,0,0,.09-0.61h0Zm10.75,1.44a6.33,6.33,0,0,1-.26,1.89,3.78,3.78,0,0,1-.78,1.41,3.35,3.35,0,0,1-1.28.89,4.73,4.73,0,0,1-1.77.3,5.18,5.18,0,0,1-1.72-.26,3,3,0,0,1-1.23-.79,3.4,3.4,0,0,1-.74-1.35,6.86,6.86,0,0,1-.25-1.94,6.12,6.12,0,0,1,.26-1.85,3.78,3.78,0,0,1,.78-1.4,3.37,3.37,0,0,1,1.28-.88,4.69,4.69,0,0,1,1.77-.31,5.2,5.2,0,0,1,1.7.25,3,3,0,0,1,1.23.79,3.41,3.41,0,0,1,.75,1.34,6.51,6.51,0,0,1,.25,1.91h0Zm-1.81.09a6.56,6.56,0,0,0-.11-1.22,2.61,2.61,0,0,0-.36-0.94,1.72,1.72,0,0,0-.67-0.61,2.3,2.3,0,0,0-1-.21,2.13,2.13,0,0,0-1.06.24,2,2,0,0,0-.69.64,2.65,2.65,0,0,0-.37.94,5.81,5.81,0,0,0-.11,1.13,6.84,6.84,0,0,0,.11,1.25,2.73,2.73,0,0,0,.35,1,1.63,1.63,0,0,0,.67.6,2.41,2.41,0,0,0,1.05.21,2.13,2.13,0,0,0,1.06-.24,1.89,1.89,0,0,0,.69-0.64,2.7,2.7,0,0,0,.37-0.95,6,6,0,0,0,.11-1.15h0Zm10.16,4a0.17,0.17,0,0,1,0,.11,0.32,0.32,0,0,1-.14.08l-0.27,0-0.42,0-0.42,0-0.26,0a0.26,0.26,0,0,1-.13-0.08,0.17,0.17,0,0,1,0-.11V88.15c0-.17,0-0.34,0-0.5s0-.31,0-0.44h0l-0.12.21-0.15.25-0.17.28-0.18.27-2.95,4.41-0.11.12a0.38,0.38,0,0,1-.15.08l-0.21,0H134l-0.41,0-0.25,0a0.23,0.23,0,0,1-.12-0.08,0.23,0.23,0,0,1,0-.13v-8a0.17,0.17,0,0,1,0-.11,0.32,0.32,0,0,1,.14-0.08l0.27,0,0.41,0,0.42,0,0.26,0a0.28,0.28,0,0,1,.14.08,0.18,0.18,0,0,1,0,.11v4.51c0,0.14,0,.29,0,0.45s0,0.31,0,.46h0l0.28-.47c0.11-.18.23-0.36,0.35-0.54l2.95-4.41,0.1-.11a0.45,0.45,0,0,1,.14-0.08l0.22,0h0.34l0.4,0,0.25,0a0.27,0.27,0,0,1,.13.08,0.2,0.2,0,0,1,0,.12v8.05h0Zm7.48-7.57a2.67,2.67,0,0,1,0,.33,0.83,0.83,0,0,1,0,.21,0.27,0.27,0,0,1-.08.12,0.16,0.16,0,0,1-.11,0h-2.12v6.85a0.18,0.18,0,0,1,0,.12,0.31,0.31,0,0,1-.14.08l-0.27.05-0.42,0-0.42,0-0.27-.05a0.31,0.31,0,0,1-.14-0.08,0.18,0.18,0,0,1,0-.12V85.76H141.3a0.16,0.16,0,0,1-.11,0,0.3,0.3,0,0,1-.08-0.12,1,1,0,0,1,0-.21,2.67,2.67,0,0,1,0-.33,2.74,2.74,0,0,1,0-.33,1,1,0,0,1,0-.22,0.29,0.29,0,0,1,.08-0.12,0.17,0.17,0,0,1,.11,0h6a0.17,0.17,0,0,1,.11,0,0.26,0.26,0,0,1,.08.12,0.84,0.84,0,0,1,0,.22,2.74,2.74,0,0,1,0,.33h0Zm6,7.11a2.49,2.49,0,0,1,0,.32,0.82,0.82,0,0,1,0,.21,0.27,0.27,0,0,1-.08.12,0.18,0.18,0,0,1-.11,0H149a0.53,0.53,0,0,1-.36-0.13,0.52,0.52,0,0,1-.15-0.42V84.9a0.52,0.52,0,0,1,.15-0.42,0.53,0.53,0,0,1,.36-0.13h4.23a0.17,0.17,0,0,1,.11,0,0.28,0.28,0,0,1,.08.11,1,1,0,0,1,0,.21,2.79,2.79,0,0,1,0,.33,2.63,2.63,0,0,1,0,.31,0.81,0.81,0,0,1,0,.21,0.31,0.31,0,0,1-.08.12,0.17,0.17,0,0,1-.11,0h-3v2.07h2.55a0.17,0.17,0,0,1,.11,0,0.27,0.27,0,0,1,.08.11,0.73,0.73,0,0,1,0,.2,2.34,2.34,0,0,1,0,.31,2.37,2.37,0,0,1,0,.32,0.71,0.71,0,0,1,0,.2,0.23,0.23,0,0,1-.08.11,0.18,0.18,0,0,1-.11,0h-2.55v2.39h3a0.17,0.17,0,0,1,.11,0,0.27,0.27,0,0,1,.08.12,0.82,0.82,0,0,1,0,.21,2.52,2.52,0,0,1,0,.32h0Zm8,0.46a0.18,0.18,0,0,1,0,.11,0.28,0.28,0,0,1-.14.08l-0.27,0-0.42,0-0.42,0-0.26,0a0.28,0.28,0,0,1-.14-0.08,0.18,0.18,0,0,1,0-.11V85.76H158q-0.18,1.51-.38,2.63a19.56,19.56,0,0,1-.41,1.93,6.9,6.9,0,0,1-.48,1.32,2.76,2.76,0,0,1-.59.81,1.8,1.8,0,0,1-.75.41,3.73,3.73,0,0,1-.95.11,0.51,0.51,0,0,1-.17,0,0.21,0.21,0,0,1-.11-0.1,0.55,0.55,0,0,1-.06-0.2,2.23,2.23,0,0,1,0-.33c0-.19,0-0.34,0-0.46a1.24,1.24,0,0,1,0-.27,0.22,0.22,0,0,1,.09-0.13,0.22,0.22,0,0,1,.12,0,0.93,0.93,0,0,0,.39-0.08,0.91,0.91,0,0,0,.36-0.33,2.89,2.89,0,0,0,.34-0.68,9,9,0,0,0,.32-1.16q0.15-.72.31-1.76T156.36,85a0.89,0.89,0,0,1,.16-0.47,0.43,0.43,0,0,1,.35-0.13H161a0.48,0.48,0,0,1,.36.13,0.58,0.58,0,0,1,.13.41v7.73h0Zm8.09-2.6a3.29,3.29,0,0,1-.18,1.11,2.18,2.18,0,0,1-.58.88,2.86,2.86,0,0,1-1.05.6,5.59,5.59,0,0,1-1.78.22H163.9a0.66,0.66,0,0,1-.21,0,0.45,0.45,0,0,1-.17-0.1,0.54,0.54,0,0,1-.11-0.17,0.63,0.63,0,0,1,0-.25V84.57a0.17,0.17,0,0,1,0-.11,0.32,0.32,0,0,1,.14-0.08l0.27,0,0.41,0,0.42,0,0.26,0a0.29,0.29,0,0,1,.14.08,0.18,0.18,0,0,1,0,.11v2.9h1.19a5.61,5.61,0,0,1,1.54.17,2.7,2.7,0,0,1,1,.5,2.23,2.23,0,0,1,.61.81,2.62,2.62,0,0,1,.22,1.09h0Zm-1.77.14a1.66,1.66,0,0,0-.09-0.57,1.13,1.13,0,0,0-.28-0.43,1.34,1.34,0,0,0-.49-0.27,3.18,3.18,0,0,0-.89-0.09h-1v2.69h1a2.63,2.63,0,0,0,.92-0.12,1.25,1.25,0,0,0,.48-0.31,1.2,1.2,0,0,0,.25-0.43,1.49,1.49,0,0,0,.08-0.47h0Zm9.57,2.44a0.18,0.18,0,0,1,0,.12,0.32,0.32,0,0,1-.14.08l-0.26.05-0.41,0-0.42,0-0.26-.05a0.31,0.31,0,0,1-.14-0.08,0.18,0.18,0,0,1,0-.12V89.18h-3.18v3.44a0.19,0.19,0,0,1,0,.12,0.28,0.28,0,0,1-.14.08l-0.26.05-0.42,0-0.42,0L171,92.82a0.31,0.31,0,0,1-.14-0.08,0.18,0.18,0,0,1,0-.12v-8a0.18,0.18,0,0,1,0-.12,0.32,0.32,0,0,1,.14-0.08l0.26-.05,0.42,0,0.42,0,0.26,0.05a0.28,0.28,0,0,1,.14.08,0.19,0.19,0,0,1,0,.12v3.13h3.18V84.59a0.18,0.18,0,0,1,0-.12,0.32,0.32,0,0,1,.14-0.08l0.26-.05,0.42,0,0.41,0,0.26,0.05a0.33,0.33,0,0,1,.14.08,0.18,0.18,0,0,1,0,.12v8h0Zm10.72,0a0.17,0.17,0,0,1,0,.11,0.32,0.32,0,0,1-.14.08l-0.27,0-0.42,0-0.41,0-0.26,0a0.31,0.31,0,0,1-.15-0.08,0.17,0.17,0,0,1,0-.11V84.57a0.17,0.17,0,0,1,0-.11,0.31,0.31,0,0,1,.15-0.08l0.27,0,0.41,0,0.42,0,0.27,0a0.33,0.33,0,0,1,.14.08,0.17,0.17,0,0,1,0,.11v8.06h0ZM185.36,90a3.21,3.21,0,0,1-.19,1.11,2.32,2.32,0,0,1-.59.88,2.9,2.9,0,0,1-1,.6,5.5,5.5,0,0,1-1.76.22h-2a0.66,0.66,0,0,1-.21,0,0.44,0.44,0,0,1-.17-0.1,0.54,0.54,0,0,1-.11-0.17,0.63,0.63,0,0,1,0-.25V84.57a0.17,0.17,0,0,1,0-.11,0.32,0.32,0,0,1,.14-0.08l0.27,0,0.41,0,0.42,0,0.26,0a0.28,0.28,0,0,1,.14.08,0.18,0.18,0,0,1,0,.11v2.94H182a5.65,5.65,0,0,1,1.52.16,2.7,2.7,0,0,1,1,.49,2.23,2.23,0,0,1,.62.8,2.6,2.6,0,0,1,.22,1.08h0Zm-1.77.14a1.64,1.64,0,0,0-.09-0.56,1.07,1.07,0,0,0-.28-0.43,1.31,1.31,0,0,0-.49-0.27,3,3,0,0,0-.87-0.1H181v2.69h0.91a2.61,2.61,0,0,0,.91-0.12,1.23,1.23,0,0,0,.47-0.31,1.19,1.19,0,0,0,.25-0.43,1.49,1.49,0,0,0,.08-0.47h0Zm11.4,2a2.49,2.49,0,0,1,0,.32,0.82,0.82,0,0,1,0,.21,0.26,0.26,0,0,1-.08.12,0.17,0.17,0,0,1-.11,0h-4.25a0.53,0.53,0,0,1-.36-0.13,0.52,0.52,0,0,1-.15-0.42V84.9a0.52,0.52,0,0,1,.15-0.42,0.53,0.53,0,0,1,.36-0.13h4.23a0.17,0.17,0,0,1,.11,0,0.28,0.28,0,0,1,.08.11,1,1,0,0,1,0,.21,2.56,2.56,0,0,1,0,.33,2.42,2.42,0,0,1,0,.31,0.77,0.77,0,0,1,0,.21,0.31,0.31,0,0,1-.08.12,0.17,0.17,0,0,1-.11,0h-3v2.07h2.55a0.17,0.17,0,0,1,.11,0,0.27,0.27,0,0,1,.08.11,0.73,0.73,0,0,1,0,.2,3,3,0,0,1,0,.63,0.71,0.71,0,0,1,0,.2,0.23,0.23,0,0,1-.08.11,0.18,0.18,0,0,1-.11,0h-2.55v2.39h3a0.16,0.16,0,0,1,.11,0,0.26,0.26,0,0,1,.08.12,0.82,0.82,0,0,1,0,.21,2.52,2.52,0,0,1,0,.32h0Zm14.44,0.44a0.21,0.21,0,0,1,0,.12,0.27,0.27,0,0,1-.13.08l-0.25.05-0.4,0-0.4,0L208,92.82a0.28,0.28,0,0,1-.13-0.08,0.2,0.2,0,0,1,0-.12V85.7h0l-2.45,6.91a0.32,0.32,0,0,1-.08.14,0.41,0.41,0,0,1-.16.09,1.17,1.17,0,0,1-.26,0h-0.38l-0.38,0a1.11,1.11,0,0,1-.26-0.05,0.54,0.54,0,0,1-.16-0.09,0.28,0.28,0,0,1-.08-0.13l-2.36-6.91h0v6.92a0.21,0.21,0,0,1,0,.12,0.28,0.28,0,0,1-.13.08l-0.26.05-0.4,0-0.4,0-0.25-.05a0.28,0.28,0,0,1-.13-0.08,0.21,0.21,0,0,1,0-.12V85a0.69,0.69,0,0,1,.18-0.51,0.64,0.64,0,0,1,.47-0.18h1.13a2.28,2.28,0,0,1,.52,0,1,1,0,0,1,.38.16,0.94,0.94,0,0,1,.26.3,2.2,2.2,0,0,1,.18.46l1.83,5.06h0l1.89-5.05a2.72,2.72,0,0,1,.19-0.47,1.14,1.14,0,0,1,.24-0.31,0.79,0.79,0,0,1,.32-0.17,1.6,1.6,0,0,1,.43,0h1.16a0.88,0.88,0,0,1,.3,0,0.48,0.48,0,0,1,.21.13,0.57,0.57,0,0,1,.13.21,0.91,0.91,0,0,1,0,.29v7.58h0Zm8.8-.41a2.45,2.45,0,0,1,.1.37,0.23,0.23,0,0,1-.05.21,0.46,0.46,0,0,1-.26.08l-0.5,0H217a1.25,1.25,0,0,1-.29,0,0.26,0.26,0,0,1-.14-0.08,0.39,0.39,0,0,1-.06-0.14l-0.56-1.71h-3.2l-0.53,1.66a0.48,0.48,0,0,1-.07.15,0.27,0.27,0,0,1-.14.1,0.94,0.94,0,0,1-.27,0h-0.46l-0.47,0a0.36,0.36,0,0,1-.23-0.09,0.26,0.26,0,0,1,0-.22,2.32,2.32,0,0,1,.1-0.37l2.61-7.54a0.58,0.58,0,0,1,.09-0.18,0.32,0.32,0,0,1,.17-0.11,1.33,1.33,0,0,1,.32,0H215a1.61,1.61,0,0,1,.36,0,0.36,0.36,0,0,1,.18.11,0.66,0.66,0,0,1,.09.2l2.62,7.54h0ZM214.32,86h0l-1.18,3.62h2.38L214.32,86h0Zm9.8-.91a2.67,2.67,0,0,1,0,.33,0.83,0.83,0,0,1,0,.21,0.27,0.27,0,0,1-.08.12,0.16,0.16,0,0,1-.11,0h-2.12v6.85a0.18,0.18,0,0,1,0,.12,0.31,0.31,0,0,1-.14.08l-0.27.05-0.42,0-0.42,0-0.27-.05a0.31,0.31,0,0,1-.14-0.08,0.18,0.18,0,0,1,0-.12V85.76h-2.12a0.16,0.16,0,0,1-.11,0,0.3,0.3,0,0,1-.08-0.12,1,1,0,0,1,0-.21,2.67,2.67,0,0,1,0-.33,2.74,2.74,0,0,1,0-.33,1,1,0,0,1,0-.22,0.29,0.29,0,0,1,.08-0.12,0.17,0.17,0,0,1,.11,0h6a0.17,0.17,0,0,1,.11,0,0.26,0.26,0,0,1,.08.12,0.84,0.84,0,0,1,0,.22,2.74,2.74,0,0,1,0,.33h0Z"/><path class="cls-3" d="M230.15,92.17a2.49,2.49,0,0,1,0,.32,0.86,0.86,0,0,1,0,.21,0.27,0.27,0,0,1-.08.12,0.18,0.18,0,0,1-.11,0h-4.25a0.53,0.53,0,0,1-.36-0.13,0.52,0.52,0,0,1-.15-0.42V84.9a0.52,0.52,0,0,1,.15-0.42,0.54,0.54,0,0,1,.36-0.13h4.23a0.17,0.17,0,0,1,.11,0,0.27,0.27,0,0,1,.08.11,1,1,0,0,1,0,.21,2.59,2.59,0,0,1,0,.33,2.44,2.44,0,0,1,0,.31,0.78,0.78,0,0,1,0,.21,0.3,0.3,0,0,1-.08.12,0.17,0.17,0,0,1-.11,0h-3v2.07h2.55a0.17,0.17,0,0,1,.11,0,0.27,0.27,0,0,1,.08.11,0.73,0.73,0,0,1,0,.2,2.36,2.36,0,0,1,0,.31,2.39,2.39,0,0,1,0,.32,0.72,0.72,0,0,1,0,.2,0.23,0.23,0,0,1-.08.11,0.18,0.18,0,0,1-.11,0h-2.55v2.39h3a0.17,0.17,0,0,1,.11,0,0.27,0.27,0,0,1,.08.12,0.86,0.86,0,0,1,0,.21,2.51,2.51,0,0,1,0,.32h0Zm7.34-5.24a3.36,3.36,0,0,1-.22,1.27,2.4,2.4,0,0,1-.65.93,2.83,2.83,0,0,1-1,.58,4.8,4.8,0,0,1-1.46.2h-0.71v2.71a0.18,0.18,0,0,1,0,.12,0.32,0.32,0,0,1-.14.08l-0.26.05-0.42,0-0.42,0-0.26-.05a0.27,0.27,0,0,1-.14-0.08,0.19,0.19,0,0,1,0-.12V85a0.61,0.61,0,0,1,.16-0.46,0.58,0.58,0,0,1,.42-0.16h2l0.57,0c0.18,0,.4,0,0.65.1a2.89,2.89,0,0,1,.77.28,2.27,2.27,0,0,1,.67.52,2.16,2.16,0,0,1,.42.73,2.83,2.83,0,0,1,.14.93h0Zm-1.8.13a1.53,1.53,0,0,0-.16-0.74,1.09,1.09,0,0,0-.39-0.43,1.31,1.31,0,0,0-.48-0.17,3.56,3.56,0,0,0-.53,0h-0.74v2.89h0.78a1.92,1.92,0,0,0,.7-0.11,1.19,1.19,0,0,0,.46-0.31,1.34,1.34,0,0,0,.27-0.48,2,2,0,0,0,.09-0.61h0Zm10,5.57a0.17,0.17,0,0,1,0,.11,0.32,0.32,0,0,1-.14.08l-0.27,0-0.42,0-0.42,0-0.26,0a0.26,0.26,0,0,1-.13-0.08,0.18,0.18,0,0,1,0-.11V88.15c0-.17,0-0.34,0-0.5s0-.31,0-0.44h0l-0.13.21-0.15.25-0.17.28-0.18.27-2.95,4.41-0.11.12a0.38,0.38,0,0,1-.15.08l-0.21,0h-0.33l-0.41,0-0.25,0a0.23,0.23,0,0,1-.12-0.08,0.23,0.23,0,0,1,0-.13v-8a0.17,0.17,0,0,1,0-.11,0.32,0.32,0,0,1,.14-0.08l0.27,0,0.41,0,0.42,0,0.26,0a0.28,0.28,0,0,1,.14.08,0.18,0.18,0,0,1,0,.11v4.51c0,0.14,0,.29,0,0.45s0,0.31,0,.46h0l0.28-.47,0.35-.54,2.95-4.41,0.1-.11a0.45,0.45,0,0,1,.14-0.08l0.22,0h0.34l0.4,0,0.25,0a0.27,0.27,0,0,1,.13.08,0.2,0.2,0,0,1,0,.12v8.05h0Zm8.79-.42a2.44,2.44,0,0,1,.1.37,0.23,0.23,0,0,1-.05.21,0.46,0.46,0,0,1-.26.08l-0.5,0h-0.52a1.26,1.26,0,0,1-.29,0,0.26,0.26,0,0,1-.14-0.08,0.39,0.39,0,0,1-.06-0.14l-0.56-1.71H249l-0.53,1.66a0.48,0.48,0,0,1-.07.15,0.27,0.27,0,0,1-.14.1,0.94,0.94,0,0,1-.27,0h-0.46l-0.47,0a0.36,0.36,0,0,1-.24-0.09,0.26,0.26,0,0,1,0-.22,2.23,2.23,0,0,1,.1-0.37l2.61-7.54a0.59,0.59,0,0,1,.09-0.18,0.32,0.32,0,0,1,.17-0.11,1.33,1.33,0,0,1,.32,0h1.15a1.61,1.61,0,0,1,.36,0,0.36,0.36,0,0,1,.18.11,0.66,0.66,0,0,1,.09.2l2.62,7.54h0ZM250.61,86h0l-1.18,3.62h2.38L250.61,86h0Zm11.67,6.66a0.17,0.17,0,0,1,0,.11,0.27,0.27,0,0,1-.14.08l-0.27,0-0.42,0-0.42,0-0.26,0a0.27,0.27,0,0,1-.14-0.08,0.17,0.17,0,0,1,0-.11V85.76h-1.81q-0.19,1.51-.38,2.63c-0.12.75-.26,1.39-0.41,1.93a6.91,6.91,0,0,1-.48,1.32,2.77,2.77,0,0,1-.59.81,1.8,1.8,0,0,1-.75.41,3.72,3.72,0,0,1-.95.11,0.51,0.51,0,0,1-.17,0,0.21,0.21,0,0,1-.11-0.1,0.55,0.55,0,0,1-.06-0.2,2.24,2.24,0,0,1,0-.33c0-.19,0-0.34,0-0.46a1.19,1.19,0,0,1,0-.27,0.22,0.22,0,0,1,.09-0.13,0.23,0.23,0,0,1,.13,0,0.92,0.92,0,0,0,.39-0.08,0.91,0.91,0,0,0,.36-0.33,2.89,2.89,0,0,0,.34-0.68,9,9,0,0,0,.32-1.16q0.15-.72.31-1.76T257.13,85a0.88,0.88,0,0,1,.16-0.47,0.43,0.43,0,0,1,.35-0.13h4.16a0.48,0.48,0,0,1,.36.13,0.58,0.58,0,0,1,.13.41v7.73h0Zm10.72,0a0.17,0.17,0,0,1,0,.11,0.32,0.32,0,0,1-.14.08l-0.27,0-0.42,0-0.41,0-0.26,0a0.31,0.31,0,0,1-.15-0.08,0.17,0.17,0,0,1,0-.11V84.57a0.17,0.17,0,0,1,0-.11,0.32,0.32,0,0,1,.15-0.08l0.27,0,0.41,0,0.42,0,0.27,0a0.33,0.33,0,0,1,.14.08,0.17,0.17,0,0,1,0,.11v8.06h0ZM270.23,90a3.21,3.21,0,0,1-.19,1.11,2.32,2.32,0,0,1-.59.88,2.88,2.88,0,0,1-1,.6,5.5,5.5,0,0,1-1.76.22h-2a0.66,0.66,0,0,1-.21,0,0.45,0.45,0,0,1-.17-0.1,0.54,0.54,0,0,1-.11-0.17,0.63,0.63,0,0,1,0-.25V84.57a0.17,0.17,0,0,1,0-.11,0.32,0.32,0,0,1,.14-0.08l0.27,0,0.41,0,0.42,0,0.26,0a0.29,0.29,0,0,1,.14.08,0.18,0.18,0,0,1,0,.11v2.94h1.07a5.64,5.64,0,0,1,1.52.16,2.71,2.71,0,0,1,1,.49,2.22,2.22,0,0,1,.62.8,2.58,2.58,0,0,1,.22,1.08h0Zm-1.77.14a1.64,1.64,0,0,0-.09-0.56,1.07,1.07,0,0,0-.28-0.43,1.33,1.33,0,0,0-.49-0.27,3,3,0,0,0-.87-0.1h-0.89v2.69h0.91a2.62,2.62,0,0,0,.91-0.12,1.23,1.23,0,0,0,.47-0.31,1.17,1.17,0,0,0,.25-0.43,1.5,1.5,0,0,0,.08-0.47h0Z"/><polygon class="cls-4" points="36.1 56.69 36.16 56.69 53.93 90.82 71.23 90.82 53.46 56.69 53.31 56.69 63.76 41.92 56.52 27.82 36.1 56.69 36.1 56.69"/><polygon class="cls-4" points="0 56.67 17.29 56.67 49.25 13.71 42.17 0 0 56.67 0 56.67"/><polygon class="cls-5" points="53.93 90.8 34.91 90.8 27.85 76.94 46.71 76.94 53.93 90.8 53.93 90.8"/><polygon class="cls-6" points="0 56.67 17.3 56.67 35.06 90.8 17.77 90.8 0 56.67 0 56.67"/><polygon class="cls-6" points="88.93 56.67 71.64 56.67 53.87 90.8 71.16 90.8 88.93 56.67 88.93 56.67"/></svg>