<svg width="18" height="18" viewBox="0 0 18 18" fill="none" xmlns="http://www.w3.org/2000/svg">
<g opacity="0.5" clip-path="url(#clip0_1_2388)">
<path d="M17.8396 13.0253C17.7912 12.9443 17.4919 12.294 16.0518 10.9574C14.5442 9.55777 14.7467 9.78503 16.5626 7.36498C17.6686 5.89112 18.1107 4.99105 17.9723 4.60627C17.8407 4.23949 17.0273 4.33625 17.0273 4.33625L14.3226 4.352C14.3226 4.352 14.1223 4.325 13.9727 4.41388C13.8275 4.50164 13.7341 4.70415 13.7341 4.70415C13.7341 4.70415 13.3055 5.84499 12.7339 6.81481C11.529 8.86134 11.0463 8.96935 10.8494 8.84221C10.3915 8.54631 10.5063 7.65187 10.5063 7.01733C10.5063 5.0338 10.8067 4.20687 9.92011 3.9931C9.62534 3.92222 9.40933 3.87497 8.65664 3.86709C7.69132 3.85697 6.87339 3.87047 6.41098 4.09661C6.10271 4.24737 5.86531 4.58377 6.01045 4.6029C6.18934 4.62652 6.59437 4.71203 6.80926 5.00455C7.08715 5.38145 7.07703 6.22977 7.07703 6.22977C7.07703 6.22977 7.23679 8.56432 6.70462 8.85459C6.33897 9.05373 5.83831 8.64757 4.76385 6.79006C4.21369 5.83936 3.79741 4.78741 3.79741 4.78741C3.79741 4.78741 3.71753 4.59165 3.57464 4.48701C3.40138 4.35988 3.15836 4.31938 3.15836 4.31938L0.58642 4.33513C0.58642 4.33513 0.200516 4.34638 0.0587555 4.51402C-0.0672539 4.66365 0.0486298 4.97192 0.0486298 4.97192C0.0486298 4.97192 2.06253 9.68265 4.34195 12.0577C6.43348 14.2347 8.80741 14.0919 8.80741 14.0919H9.88299C9.88299 14.0919 10.2081 14.0559 10.3735 13.877C10.5265 13.7127 10.5209 13.4044 10.5209 13.4044C10.5209 13.4044 10.4995 11.9609 11.1701 11.7483C11.8305 11.539 12.6788 13.1434 13.5778 13.7611C14.2573 14.228 14.7737 14.1256 14.7737 14.1256L17.178 14.0919C17.178 14.0919 18.4359 14.0142 17.8396 13.0253Z" fill="#A8A8BE"/>
</g>
<defs>
<clipPath id="clip0_1_2388">
<rect width="18" height="18" fill="white"/>
</clipPath>
</defs>
</svg>
