<svg width="18" height="18" viewBox="0 0 18 18" fill="none" xmlns="http://www.w3.org/2000/svg">
<path opacity="0.5" d="M5.53499 2.92197C6.59142 2.31904 7.78665 2.00131 9.00317 2C10.0706 2.00096 11.1238 2.24583 12.0821 2.71589C13.0404 3.18595 13.8785 3.86876 14.5324 4.71214C15.1862 5.55552 15.6386 6.53715 15.8548 7.58202C16.071 8.62689 16.0455 9.70734 15.78 10.7408C15.5145 11.7743 15.0162 12.7334 14.3231 13.5449C13.63 14.3564 12.7605 14.9988 11.7811 15.423C10.8016 15.8472 9.73804 16.042 8.67172 15.9924C7.6054 15.9429 6.56452 15.6504 5.62862 15.1372L2 16L2.86318 12.373C2.27867 11.3066 1.98187 10.1065 2.00197 8.89072C2.02208 7.67493 2.35839 6.48529 2.97784 5.43877C3.59729 4.39226 4.47855 3.5249 5.53499 2.92197Z" stroke="#A8A8BE" stroke-width="2" stroke-linecap="round" stroke-linejoin="round"/>
<path opacity="0.5" d="M6.2632 6H7.76065C7.82842 6 7.89342 6.02685 7.94134 6.07465C7.98926 6.12245 8.01618 6.18729 8.01618 6.25489C8.0078 6.5948 8.06506 6.93315 8.18484 7.25149C8.23642 7.35805 8.24776 7.47959 8.21678 7.59382C8.18581 7.70805 8.11459 7.80731 8.01618 7.87341L7.49233 8.38318C7.72461 8.83561 8.02831 9.24784 8.39182 9.60408C8.74608 9.97256 9.15768 10.2816 9.61073 10.5191L10.1218 9.9966C10.3773 9.74172 10.4949 9.74172 10.7453 9.82838C11.0645 9.94785 11.4037 10.005 11.7445 9.9966C11.8112 9.9997 11.8744 10.0276 11.9217 10.0747C11.969 10.1218 11.9969 10.1849 12 10.2515V11.7451C11.9969 11.8117 11.969 11.8748 11.9217 11.9219C11.8744 11.969 11.8112 11.9969 11.7445 12C10.2413 11.9347 8.81644 11.3131 7.74787 10.2566C6.68698 9.19187 6.06354 7.76997 6 6.27018C6.00061 6.20002 6.0283 6.1328 6.07732 6.08248C6.12634 6.03216 6.19291 6.00262 6.2632 6Z" fill="#A8A8BE" stroke="#A8A8BE" stroke-width="0.8" stroke-linecap="round" stroke-linejoin="round"/>
</svg>
