<svg width="22" height="22" viewBox="0 0 22 22" fill="none" xmlns="http://www.w3.org/2000/svg">
<path d="M6.62946 16.4999V14.5543H5.5V13.3731H6.62946V11.9313H5.5V10.5068H6.62946V4.58325H12.1295C12.9043 4.58325 13.5427 4.73959 14.0446 5.05228C14.5575 5.35338 14.9395 5.77608 15.1905 6.32038C15.4524 6.86467 15.5833 7.49583 15.5833 8.21384C15.5833 8.94343 15.4415 9.59196 15.1577 10.1594C14.874 10.7153 14.4702 11.1496 13.9464 11.4623C13.4335 11.7749 12.8224 11.9313 12.1131 11.9313H8.18452V13.3731H11.622V14.5543H8.18452V16.4999H6.62946ZM8.18452 10.5068H12.0149C12.626 10.5068 13.1116 10.3042 13.4717 9.89885C13.8318 9.49352 14.0119 8.93764 14.0119 8.23121C14.0119 7.7564 13.9355 7.35686 13.7827 7.0326C13.6409 6.70833 13.4226 6.45935 13.128 6.28563C12.8333 6.10034 12.4623 6.00769 12.0149 6.00769H8.18452V10.5068Z" fill="#333333"/>
</svg>
