<svg width="24" height="24" viewBox="0 0 24 24" fill="none" xmlns="http://www.w3.org/2000/svg">
<path d="M21.7323 18.0022L13.7386 4.01311C13.5643 3.70555 13.3116 3.44974 13.0061 3.27175C12.7007 3.09377 12.3535 3 12 3C11.6465 3 11.2993 3.09377 10.9939 3.27175C10.6885 3.44974 10.4357 3.70555 10.2614 4.01311L2.26778 18.0022C2.09161 18.3074 1.99922 18.6536 2 19.006C2.00079 19.3583 2.0947 19.7042 2.27223 20.0085C2.44975 20.3129 2.70458 20.5648 3.01089 20.739C3.31719 20.9131 3.66408 21.0031 4.01639 20.9999H20.0036C20.3543 20.9996 20.6986 20.907 21.0021 20.7314C21.3056 20.5559 21.5576 20.3036 21.7328 19.9998C21.9079 19.6961 22.0001 19.3516 22 19.001C21.9999 18.6503 21.9076 18.3059 21.7323 18.0022Z" stroke="black" stroke-width="2" stroke-linecap="round" stroke-linejoin="round"/>
<path d="M12 9V13" stroke="black" stroke-width="2" stroke-linecap="round" stroke-linejoin="round"/>
<path d="M12 17H12.01" stroke="black" stroke-width="2" stroke-linecap="round" stroke-linejoin="round"/>
</svg>
