<svg width="24" height="24" viewBox="0 0 24 24" fill="none" xmlns="http://www.w3.org/2000/svg">
<path d="M7.23214 18V15.8776H6V14.5889H7.23214V13.016H6V11.4621H7.23214V5H13.2321C14.0774 5 14.7738 5.17055 15.3214 5.51166C15.881 5.84014 16.2976 6.30126 16.5714 6.89504C16.8571 7.48882 17 8.17736 17 8.96064C17 9.75656 16.8452 10.464 16.5357 11.0831C16.2262 11.6895 15.7857 12.1633 15.2143 12.5044C14.6548 12.8455 13.9881 13.016 13.2143 13.016H8.92857V14.5889H12.6786V15.8776H8.92857V18H7.23214ZM8.92857 11.4621H13.1071C13.7738 11.4621 14.3036 11.241 14.6964 10.7988C15.0893 10.3567 15.2857 9.75024 15.2857 8.97959C15.2857 8.46161 15.2024 8.02575 15.0357 7.67201C14.881 7.31827 14.6429 7.04665 14.3214 6.85714C14 6.65501 13.5952 6.55394 13.1071 6.55394H8.92857V11.4621Z" fill="#333333"/>
</svg>
