<svg width="1279" height="151" viewBox="0 0 1279 151" fill="none" xmlns="http://www.w3.org/2000/svg">
<g clip-path="url(#clip0_2028_14914)">
<mask id="mask0_2028_14914" style="mask-type:luminance" maskUnits="userSpaceOnUse" x="-1" y="0" width="1280" height="170">
<path d="M1279 0H-1V170H1279V0Z" fill="white"/>
</mask>
<g mask="url(#mask0_2028_14914)">
<path d="M1280.25 0H0.25V152H1280.25V0Z" fill="url(#paint0_linear_2028_14914)"/>
<path d="M1226.25 131H1083.25V159H1226.25V131Z" fill="url(#paint1_linear_2028_14914)" fill-opacity="0.4"/>
<path d="M1245.25 159.5C1245.25 147.626 1254.88 138 1266.75 138C1278.62 138 1288.25 147.626 1288.25 159.5V172H1245.25V159.5Z" fill="url(#paint2_linear_2028_14914)" fill-opacity="0.17"/>
<path d="M1038.25 135H992.25V163H1038.25V135Z" fill="url(#paint3_linear_2028_14914)" fill-opacity="0.4"/>
<path d="M876.25 133H848.25V161H876.25V133Z" fill="url(#paint4_linear_2028_14914)" fill-opacity="0.4"/>
<path d="M784.25 123H758.25V159H784.25V123Z" fill="url(#paint5_linear_2028_14914)" fill-opacity="0.4"/>
<path d="M724.25 126H698.25V161H724.25V126Z" fill="url(#paint6_linear_2028_14914)" fill-opacity="0.4"/>
<path d="M679.25 127H653.25V160H679.25V127Z" fill="url(#paint7_linear_2028_14914)" fill-opacity="0.4"/>
<path d="M597.25 113H556.25V161H597.25V113Z" fill="url(#paint8_linear_2028_14914)" fill-opacity="0.4"/>
<path d="M469.25 105H347.25V164H469.25V105Z" fill="url(#paint9_linear_2028_14914)" fill-opacity="0.4"/>
<path d="M296.25 134H269.25V160H296.25V134Z" fill="url(#paint10_linear_2028_14914)" fill-opacity="0.4"/>
<path d="M235.25 120H69.25V158H235.25V120Z" fill="url(#paint11_linear_2028_14914)" fill-opacity="0.4"/>
<path d="M488.25 129H469.25V161H488.25V129Z" fill="url(#paint12_linear_2028_14914)" fill-opacity="0.22"/>
<path d="M505.25 120H494.25V162H505.25V120Z" fill="url(#paint13_linear_2028_14914)" fill-opacity="0.22"/>
<path d="M810.329 30.6747C807.169 31.6699 805.389 35.0894 806.354 38.3123C807.319 41.5352 810.663 43.3411 813.823 42.3459C816.983 41.3507 818.763 37.9313 817.798 34.7083C816.833 31.4854 813.489 29.6795 810.329 30.6747Z" fill="#5AA9FD"/>
<path d="M805.393 20.3208C801.554 21.5296 799.419 25.7703 800.623 29.7927C801.827 33.815 805.914 36.0958 809.753 34.887C813.591 33.6782 815.727 29.4375 814.523 25.4151C813.319 21.3928 809.231 19.1119 805.393 20.3208Z" fill="#5AA9FD"/>
<path d="M817.464 24.0255C813.553 25.2572 811.351 29.4889 812.545 33.4775C813.739 37.466 817.877 39.7009 821.788 38.4693C825.699 37.2377 827.901 33.0059 826.707 29.0174C825.513 25.0288 821.375 22.7939 817.464 24.0255Z" fill="#5AA9FD"/>
<path d="M787.459 24.259C782.864 25.7061 780.308 30.7827 781.749 35.5979C783.19 40.4131 788.084 43.1435 792.679 41.6964C797.274 40.2493 799.831 35.1727 798.389 30.3575C796.948 25.5423 792.054 22.8119 787.459 24.259Z" fill="#5AA9FD"/>
<path d="M794.107 33.7079C791.116 34.6498 789.432 37.8858 790.345 40.9359C791.258 43.986 794.422 45.695 797.413 44.7532C800.404 43.8114 802.088 40.5753 801.175 37.5252C800.262 34.4752 797.097 32.7661 794.107 33.7079Z" fill="#5AA9FD"/>
<path d="M802.588 33.6552C799.597 34.597 797.913 37.8331 798.826 40.8832C799.739 43.9332 802.903 45.6423 805.894 44.7005C808.885 43.7586 810.569 40.5226 809.656 37.4725C808.743 34.4224 805.578 32.7134 802.588 33.6552Z" fill="#5AA9FD"/>
<path d="M796.551 23.498C793.56 24.4398 791.876 27.6759 792.789 30.7259C793.702 33.776 796.866 35.4851 799.857 34.5432C802.848 33.6014 804.532 30.3653 803.619 27.3153C802.706 24.2652 799.541 22.5562 796.551 23.498Z" fill="#5AA9FD"/>
<path d="M797.079 30.3701C794.089 31.3119 792.404 34.548 793.317 37.598C794.23 40.6481 797.395 42.3571 800.386 41.4153C803.376 40.4735 805.061 37.2374 804.148 34.1873C803.235 31.1373 800.07 29.4282 797.079 30.3701Z" fill="#5AA9FD"/>
<path d="M817.248 36.5803C815.428 37.1535 814.403 39.123 814.959 40.9793C815.514 42.8356 817.44 43.8757 819.26 43.3025C821.081 42.7293 822.106 40.7598 821.55 38.9035C820.994 37.0472 819.068 36.0071 817.248 36.5803Z" fill="#5AA9FD"/>
<path d="M827.155 28.1743C825.004 28.8517 823.793 31.179 824.45 33.3727C825.106 35.5663 827.382 36.7955 829.533 36.1181C831.684 35.4407 832.895 33.1133 832.239 30.9197C831.582 28.7261 829.306 27.4969 827.155 28.1743Z" fill="#5AA9FD"/>
<path d="M778.237 29.0678C776.086 29.7452 774.875 32.0726 775.532 34.2662C776.188 36.4598 778.464 37.689 780.615 37.0116C782.766 36.3343 783.977 34.0069 783.321 31.8133C782.664 29.6196 780.388 28.3905 778.237 29.0678Z" fill="#5AA9FD"/>
<mask id="mask1_2028_14914" style="mask-type:alpha" maskUnits="userSpaceOnUse" x="1158" y="25" width="26" height="19">
<path d="M1166.79 35.535C1168.56 35.1078 1169.65 33.3273 1169.22 31.5583C1168.8 29.7893 1167.02 28.7015 1165.25 29.1287C1163.48 29.556 1162.39 31.3364 1162.82 33.1055C1163.24 34.8745 1165.03 35.9622 1166.79 35.535Z" fill="#EA7D18"/>
<path d="M1171.77 42.92C1174.61 42.233 1176.35 39.3069 1175.64 36.3843C1174.94 33.4617 1172.06 31.6493 1169.21 32.3362C1166.37 33.0232 1164.63 35.9493 1165.34 38.872C1166.05 41.7946 1168.92 43.6069 1171.77 42.92Z" fill="#EA7D18"/>
<path d="M1163.25 40.4483C1165.44 39.9195 1166.78 37.7162 1166.25 35.5269C1165.73 33.3376 1163.52 31.9915 1161.33 32.5202C1159.14 33.0489 1157.8 35.2523 1158.33 37.4416C1158.86 39.6309 1161.06 40.977 1163.25 40.4483Z" fill="#EA7D18"/>
<mask id="mask2_2028_14914" style="mask-type:alpha" maskUnits="userSpaceOnUse" x="1173" y="31" width="11" height="11">
<path d="M1179.73 41.3527C1182.3 40.7314 1183.87 38.0852 1183.23 35.4422C1182.59 32.7992 1179.99 31.1602 1177.41 31.7814C1174.84 32.4027 1173.27 35.0488 1173.91 37.6919C1174.55 40.3349 1177.15 41.9739 1179.73 41.3527Z" fill="#EA7D18"/>
</mask>
<g mask="url(#mask2_2028_14914)">
<path d="M1179.73 41.3527C1182.3 40.7314 1183.87 38.0852 1183.23 35.4422C1182.59 32.7992 1179.99 31.1602 1177.41 31.7814C1174.84 32.4027 1173.27 35.0488 1173.91 37.6919C1174.55 40.3349 1177.15 41.9739 1179.73 41.3527Z" fill="#EA7D18"/>
</g>
<path d="M1170.75 32.144C1172.43 31.7397 1173.46 30.0548 1173.05 28.3806C1172.65 26.7065 1170.96 25.677 1169.29 26.0814C1167.61 26.4857 1166.58 28.1706 1166.99 29.8448C1167.39 31.519 1169.08 32.5484 1170.75 32.144Z" fill="#EA7D18"/>
<path d="M1171.71 35.7749C1173.39 35.3706 1174.42 33.6856 1174.01 32.0115C1173.61 30.3373 1171.92 29.3079 1170.25 29.7123C1168.57 30.1166 1167.54 31.8015 1167.95 33.4757C1168.35 35.1498 1170.04 36.1792 1171.71 35.7749Z" fill="#EA7D18"/>
<path d="M1176.07 34.9302C1177.75 34.5259 1178.78 32.8409 1178.37 31.1668C1177.97 29.4926 1176.28 28.4632 1174.61 28.8675C1172.93 29.2719 1171.9 30.9568 1172.31 32.6309C1172.71 34.3051 1174.4 35.3345 1176.07 34.9302Z" fill="#EA7D18"/>
</mask>
<g mask="url(#mask1_2028_14914)">
<path d="M1166.78 35.535C1168.55 35.1078 1169.64 33.3273 1169.21 31.5583C1168.79 29.7893 1167.01 28.7015 1165.24 29.1287C1163.47 29.556 1162.38 31.3364 1162.81 33.1055C1163.24 34.8745 1165.02 35.9622 1166.78 35.535Z" fill="#EA7D18"/>
<path d="M1171.76 42.92C1174.6 42.233 1176.34 39.3069 1175.63 36.3843C1174.93 33.4617 1172.05 31.6493 1169.2 32.3362C1166.36 33.0232 1164.62 35.9493 1165.33 38.872C1166.04 41.7946 1168.91 43.6069 1171.76 42.92Z" fill="#EA7D18"/>
<path d="M1163.24 40.4483C1165.43 39.9195 1166.77 37.7162 1166.24 35.5269C1165.72 33.3376 1163.51 31.9915 1161.32 32.5202C1159.13 33.0489 1157.79 35.2523 1158.32 37.4416C1158.85 39.6309 1161.05 40.977 1163.24 40.4483Z" fill="#EA7D18"/>
<mask id="mask3_2028_14914" style="mask-type:alpha" maskUnits="userSpaceOnUse" x="1173" y="31" width="11" height="11">
<path d="M1179.72 41.3526C1182.29 40.7314 1183.86 38.0852 1183.22 35.4422C1182.58 32.7992 1179.98 31.1602 1177.4 31.7814C1174.83 32.4026 1173.26 35.0488 1173.9 37.6919C1174.54 40.3349 1177.14 41.9739 1179.72 41.3526Z" fill="#EA7D18"/>
</mask>
<g mask="url(#mask3_2028_14914)">
<path d="M1179.72 41.3526C1182.29 40.7314 1183.86 38.0852 1183.22 35.4422C1182.58 32.7992 1179.98 31.1602 1177.4 31.7814C1174.83 32.4026 1173.26 35.0488 1173.9 37.6919C1174.54 40.3349 1177.14 41.9739 1179.72 41.3526Z" fill="#EA7D18"/>
</g>
<path d="M1170.74 32.144C1172.42 31.7397 1173.45 30.0547 1173.04 28.3806C1172.64 26.7064 1170.95 25.677 1169.28 26.0814C1167.6 26.4857 1166.57 28.1706 1166.98 29.8448C1167.38 31.519 1169.07 32.5484 1170.74 32.144Z" fill="#EA7D18"/>
<path d="M1171.7 35.7749C1173.38 35.3706 1174.41 33.6856 1174 32.0115C1173.6 30.3373 1171.91 29.3079 1170.24 29.7123C1168.56 30.1166 1167.53 31.8015 1167.94 33.4757C1168.34 35.1498 1170.03 36.1792 1171.7 35.7749Z" fill="#EA7D18"/>
<path d="M1176.06 34.9302C1177.74 34.5259 1178.77 32.8409 1178.36 31.1668C1177.96 29.4926 1176.27 28.4632 1174.6 28.8675C1172.92 29.2719 1171.9 30.9568 1172.3 32.6309C1172.7 34.3051 1174.39 35.3345 1176.06 34.9302Z" fill="#EA7D18"/>
</g>
<path d="M1189.04 31.3783C1192.16 30.6254 1194.08 27.4875 1193.33 24.3697C1192.57 21.2519 1189.43 19.3348 1186.32 20.0878C1183.2 20.8408 1181.28 23.9787 1182.04 27.0965C1182.79 30.2143 1185.93 32.1313 1189.04 31.3783Z" fill="#12438F"/>
<path d="M1197.8 44.3946C1202.82 43.1838 1205.87 38.0267 1204.63 32.8758C1203.38 27.7249 1198.31 24.5307 1193.3 25.7414C1188.28 26.9521 1185.23 32.1092 1186.47 37.2602C1187.72 42.4111 1192.79 45.6053 1197.8 44.3946Z" fill="#12438F"/>
<path d="M1182.78 40.0354C1186.64 39.1036 1189.01 35.2203 1188.08 31.3618C1187.14 27.5034 1183.26 25.1309 1179.4 26.0627C1175.54 26.9946 1173.17 30.8779 1174.1 34.7364C1175.04 38.5948 1178.92 40.9673 1182.78 40.0354Z" fill="#12438F"/>
<path d="M1211.86 41.6333C1216.39 40.5384 1219.15 35.8746 1218.03 31.2165C1216.9 26.5583 1212.32 23.6697 1207.78 24.7646C1203.25 25.8595 1200.49 30.5232 1201.61 35.1814C1202.74 39.8396 1207.32 42.7282 1211.86 41.6333Z" fill="#12438F"/>
<path d="M1196.01 25.4006C1198.96 24.688 1200.77 21.7184 1200.06 18.7678C1199.35 15.8172 1196.38 14.003 1193.43 14.7156C1190.48 15.4282 1188.66 18.3978 1189.38 21.3484C1190.09 24.2989 1193.06 26.1132 1196.01 25.4006Z" fill="#12438F"/>
<path d="M1197.72 31.8C1200.67 31.0874 1202.48 28.1178 1201.77 25.1672C1201.06 22.2167 1198.09 20.4024 1195.14 21.115C1192.19 21.8276 1190.37 24.7972 1191.09 27.7478C1191.8 30.6984 1194.77 32.5126 1197.72 31.8Z" fill="#12438F"/>
<path d="M1205.4 30.3127C1208.35 29.6001 1210.17 26.6305 1209.45 23.6799C1208.74 20.7294 1205.77 18.9151 1202.82 19.6277C1199.87 20.3403 1198.06 23.3099 1198.77 26.2605C1199.48 29.2111 1202.45 31.0253 1205.4 30.3127Z" fill="#12438F"/>
<mask id="mask4_2028_14914" style="mask-type:alpha" maskUnits="userSpaceOnUse" x="50" y="18" width="50" height="25">
<path d="M74.6032 42.8675C82.671 42.8675 89.2113 37.3182 89.2113 30.4728C89.2113 23.6274 82.671 18.0781 74.6032 18.0781C66.5354 18.0781 59.9951 23.6274 59.9951 30.4728C59.9951 37.3182 66.5354 42.8675 74.6032 42.8675Z" fill="#12438F"/>
<path d="M92.7512 39.3217C96.6628 39.3217 99.8339 36.1506 99.8339 32.239C99.8339 28.3273 96.6628 25.1562 92.7512 25.1562C88.8395 25.1562 85.6685 28.3273 85.6685 32.239C85.6685 36.1506 88.8395 39.3217 92.7512 39.3217Z" fill="#12438F"/>
<path d="M59.1034 40.2117C63.993 40.2117 67.9568 36.2479 67.9568 31.3583C67.9568 26.4687 63.993 22.5049 59.1034 22.5049C54.2138 22.5049 50.25 26.4687 50.25 31.3583C50.25 36.2479 54.2138 40.2117 59.1034 40.2117Z" fill="#12438F"/>
</mask>
<g mask="url(#mask4_2028_14914)">
<path d="M74.5803 42.8636C82.6481 42.8636 89.1884 37.3143 89.1884 30.4689C89.1884 23.6235 82.6481 18.0742 74.5803 18.0742C66.5124 18.0742 59.9722 23.6235 59.9722 30.4689C59.9722 37.3143 66.5124 42.8636 74.5803 42.8636Z" fill="#12438F"/>
<path d="M92.7434 39.3266C96.655 39.3266 99.8261 36.1555 99.8261 32.2438C99.8261 28.3322 96.655 25.1611 92.7434 25.1611C88.8317 25.1611 85.6606 28.3322 85.6606 32.2438C85.6606 36.1555 88.8317 39.3266 92.7434 39.3266Z" fill="#12438F"/>
<path d="M59.0956 40.2078C63.9852 40.2078 67.949 36.244 67.949 31.3544C67.949 26.4648 63.9852 22.501 59.0956 22.501C54.206 22.501 50.2422 26.4648 50.2422 31.3544C50.2422 36.244 54.206 40.2078 59.0956 40.2078Z" fill="#12438F"/>
</g>
<path d="M633.996 68.2559H637.572V99.6181H633.996V68.2559Z" fill="#12438F"/>
<mask id="mask5_2028_14914" style="mask-type:alpha" maskUnits="userSpaceOnUse" x="609" y="23" width="51" height="54">
<path d="M632.607 50.1877C639.668 50.1877 645.392 44.3061 645.392 37.0509C645.392 29.7956 639.668 23.9141 632.607 23.9141C625.545 23.9141 619.821 29.7956 619.821 37.0509C619.821 44.3061 625.545 50.1877 632.607 50.1877Z" fill="#12438F"/>
<path d="M646.382 66.7424C653.443 66.7424 659.167 60.8608 659.167 53.6055C659.167 46.3503 653.443 40.4688 646.382 40.4688C639.321 40.4688 633.597 46.3503 633.597 53.6055C633.597 60.8608 639.321 66.7424 646.382 66.7424Z" fill="#12438F"/>
<path d="M650.001 62.8493C650.001 77.9986 627.09 81.3602 622.463 68.2013C615.402 68.2013 609.678 62.3198 609.678 55.0645C609.678 47.8093 615.402 41.9277 622.463 41.9277C629.524 41.9277 650.001 55.594 650.001 62.8493Z" fill="#12438F"/>
</mask>
<g mask="url(#mask5_2028_14914)">
<path d="M632.146 49.3908C639.208 49.3908 644.932 43.5092 644.932 36.254C644.932 28.9987 639.208 23.1172 632.146 23.1172C625.085 23.1172 619.361 28.9987 619.361 36.254C619.361 43.5092 625.085 49.3908 632.146 49.3908Z" fill="#12438F"/>
<path d="M646.382 66.7443C653.443 66.7443 659.167 60.8628 659.167 53.6075C659.167 46.3522 653.443 40.4707 646.382 40.4707C639.321 40.4707 633.597 46.3522 633.597 53.6075C633.597 60.8628 639.321 66.7443 646.382 66.7443Z" fill="#12438F"/>
<path d="M650.001 62.8474C650.001 77.9967 627.09 81.3583 622.463 68.1994C615.402 68.1994 609.678 62.3179 609.678 55.0626C609.678 47.8074 615.402 41.9258 622.463 41.9258C629.524 41.9258 650.001 55.5921 650.001 62.8474Z" fill="#12438F"/>
</g>
<path d="M232.373 120.739V71.7257L193.078 47.6416L153.783 68.8065V120.739H232.373Z" fill="#5AA9FD"/>
<path d="M154.628 74.7152L64.2065 74.7148V117.738C64.2065 119.395 65.5497 120.738 67.2065 120.738H154.628V74.7152Z" fill="#EA7D18"/>
<mask id="mask6_2028_14914" style="mask-type:alpha" maskUnits="userSpaceOnUse" x="62" y="48" width="132" height="28">
<path d="M193.321 48.0645H103.923L62.5156 75.5287H153.782L193.321 48.0645Z" fill="#12438F"/>
</mask>
<g mask="url(#mask6_2028_14914)">
<path d="M212.757 44.6842L92.5181 40.459L56.2104 75.4349L161.39 80.1765L212.757 44.6842Z" fill="#12438F"/>
<path d="M115.385 44.1377L65.4272 78.6918" stroke="white" stroke-opacity="0.08"/>
<path d="M123.712 44.1377L73.7549 78.6918" stroke="white" stroke-opacity="0.08"/>
<path d="M132.048 44.1377L82.0903 78.6918" stroke="white" stroke-opacity="0.08"/>
<path d="M140.361 44.1377L90.4033 78.6918" stroke="white" stroke-opacity="0.08"/>
<path d="M148.689 44.1377L98.731 78.6918" stroke="white" stroke-opacity="0.08"/>
<path d="M157.016 44.1377L107.059 78.6918" stroke="white" stroke-opacity="0.08"/>
<path d="M165.344 44.1377L115.387 78.6918" stroke="white" stroke-opacity="0.08"/>
<path d="M173.672 44.1377L123.715 78.6918" stroke="white" stroke-opacity="0.08"/>
<path d="M182 44.1377L132.043 78.6918" stroke="white" stroke-opacity="0.08"/>
<path d="M190.32 44.1377L140.363 78.6918" stroke="white" stroke-opacity="0.08"/>
</g>
<path d="M84.4903 75.1064H71.8145V120.739H84.4903V75.1064Z" fill="#12438F"/>
<path d="M146.164 75.1064H133.488V120.739H146.164V75.1064Z" fill="#12438F"/>
<path d="M200.04 80.2891H189.876V90.4527H200.04V80.2891Z" fill="#12438F"/>
<path d="M187.067 69.9473H172.912C172.222 69.9473 171.663 70.5064 171.663 71.1962C171.663 71.886 172.222 72.4451 172.912 72.4451H187.067C187.756 72.4451 188.316 71.886 188.316 71.1962C188.316 70.5064 187.756 69.9473 187.067 69.9473Z" fill="#12438F"/>
<path d="M212.878 69.9473H198.723C198.033 69.9473 197.474 70.5064 197.474 71.1962C197.474 71.886 198.033 72.4451 198.723 72.4451H212.878C213.567 72.4451 214.127 71.886 214.127 71.1962C214.127 70.5064 213.567 69.9473 212.878 69.9473Z" fill="#12438F"/>
<path d="M180.742 32.4787C180.742 31.559 181.487 30.8135 182.407 30.8135C183.327 30.8135 184.072 31.559 184.072 32.4787V52.4618H180.742V32.4787Z" fill="#5AA9FD"/>
<path d="M90.8276 49.964C90.8276 49.0443 91.5732 48.2988 92.4929 48.2988C93.4126 48.2988 94.1581 49.0443 94.1581 49.964V69.9471H90.8276V49.964Z" fill="#5AA9FD"/>
<path d="M528.242 123.009C539.442 123.009 548.521 121.306 548.521 119.207C548.521 117.107 539.442 115.404 528.242 115.404C517.042 115.404 507.963 117.107 507.963 119.207C507.963 121.306 517.042 123.009 528.242 123.009Z" fill="#12438F"/>
<path d="M123.217 99.2013V31.5361C123.217 28.7747 125.455 26.5361 128.217 26.5361H177.785C180.547 26.5361 182.785 28.7747 182.785 31.5361V86.5237C182.785 89.2851 185.024 91.5237 187.785 91.5237H411.173M1091.17 102.919L956.592 103.106C953.828 103.11 951.585 100.871 951.585 98.1059V86.4423M904.69 84.3299V91.1589C904.69 93.9203 902.452 96.1589 899.69 96.1589H676.426C670.903 96.1589 666.426 91.6817 666.426 86.1589V74.5434C666.426 71.782 664.187 69.5434 661.426 69.5434H533.43C530.668 69.5434 528.43 71.782 528.43 74.5434V120.623" stroke="#EA7D18" stroke-width="10"/>
<path d="M552.388 64.4561H573.505V74.5556H538.616L552.388 64.4561Z" fill="#5AA9FD"/>
<path d="M1138.43 30.0655L1129.7 27.6855V49.5026L1138.43 51.8827V30.0655Z" fill="#12438F"/>
<path d="M1129.7 27.6855L1118.59 31.6522V39.5857L1124.15 41.5691L1129.7 49.8993V27.6855Z" fill="#EA7D18"/>
<path d="M1148.33 108.12H1226.21V127.462C1226.21 129.119 1224.87 130.462 1223.21 130.462H1148.33V108.12Z" fill="#5AA9FD"/>
<path d="M1106.68 40.7773L1153.49 118.129V130.426H1086.68C1085.02 130.426 1083.68 129.083 1083.68 127.426V97.502L1106.68 40.7773Z" fill="#EA7D18"/>
<path d="M1081.3 98.6907L1106.52 40.1338L1154.67 117.657" stroke="#12438F" stroke-width="4"/>
<path d="M1108.28 75.6831C1111.35 75.6831 1113.83 73.1967 1113.83 70.1296C1113.83 67.0625 1111.35 64.5762 1108.28 64.5762C1105.21 64.5762 1102.73 67.0625 1102.73 70.1296C1102.73 73.1967 1105.21 75.6831 1108.28 75.6831Z" fill="#12438F"/>
<path d="M1109.87 92.3438H1090.04V130.425H1109.87V92.3438Z" fill="#12438F"/>
<path d="M1132.93 95.3525H1120.24V112.806H1132.93V95.3525Z" fill="#5AA9FD"/>
<mask id="mask7_2028_14914" style="mask-type:alpha" maskUnits="userSpaceOnUse" x="1106" y="36" width="127" height="75">
<path d="M1106.29 36.8105L1197.98 57.518L1232.24 110.592H1151.91L1106.29 36.8105Z" fill="#12438F"/>
</mask>
<g mask="url(#mask7_2028_14914)">
<path d="M1106.29 36.8105L1198.29 57.518L1232.87 110.592H1151.91L1106.29 36.8105Z" fill="#12438F"/>
<path d="M1107.45 34.2578L1158.69 113.47" stroke="#1F54A6"/>
<path d="M1113.74 34.2578L1164.97 113.47" stroke="#1F54A6"/>
<path d="M1120.03 34.2578L1171.26 113.47" stroke="#1F54A6"/>
<path d="M1126.32 34.2578L1177.55 113.47" stroke="#1F54A6"/>
<path d="M1132.6 34.2578L1183.83 113.47" stroke="#1F54A6"/>
<path d="M1138.88 34.2578L1190.12 113.47" stroke="#1F54A6"/>
<path d="M1145.17 34.2578L1196.41 113.47" stroke="#1F54A6"/>
<path d="M1151.46 34.2578L1202.7 113.47" stroke="#1F54A6"/>
<path d="M1157.74 34.2578L1208.98 113.47" stroke="#1F54A6"/>
<path d="M1164.02 34.2578L1215.26 113.47" stroke="#1F54A6"/>
<path d="M1170.32 34.2578L1221.56 113.47" stroke="#1F54A6"/>
<path d="M1176.6 34.2578L1227.84 113.47" stroke="#1F54A6"/>
</g>
<path d="M1116.22 114.383C1117.53 114.383 1118.59 113.32 1118.59 112.009C1118.59 110.698 1117.53 109.635 1116.22 109.635C1114.91 109.635 1113.85 110.698 1113.85 112.009C1113.85 113.32 1114.91 114.383 1116.22 114.383Z" fill="#12438F"/>
<path d="M1118.93 111.671C1120.24 111.671 1121.3 110.608 1121.3 109.297C1121.3 107.986 1120.24 106.923 1118.93 106.923C1117.62 106.923 1116.56 107.986 1116.56 109.297C1116.56 110.608 1117.62 111.671 1118.93 111.671Z" fill="#12438F"/>
<path d="M1120.28 115.062C1121.59 115.062 1122.65 113.999 1122.65 112.688C1122.65 111.377 1121.59 110.314 1120.28 110.314C1118.97 110.314 1117.91 111.377 1117.91 112.688C1117.91 113.999 1118.97 115.062 1120.28 115.062Z" fill="#12438F"/>
<path d="M1122.32 110.314C1123.63 110.314 1124.69 109.251 1124.69 107.94C1124.69 106.629 1123.63 105.566 1122.32 105.566C1121.01 105.566 1119.95 106.629 1119.95 107.94C1119.95 109.251 1121.01 110.314 1122.32 110.314Z" fill="#12438F"/>
<path d="M1134.87 113.367C1134.87 114.678 1123.63 113.706 1122.32 113.706C1121.01 113.706 1119.95 112.643 1119.95 111.332C1119.95 110.021 1121.01 108.958 1122.32 108.958C1123.63 108.958 1134.87 112.056 1134.87 113.367Z" fill="#12438F"/>
<path d="M1126.39 112.349C1127.7 112.349 1128.76 111.287 1128.76 109.975C1128.76 108.664 1127.7 107.602 1126.39 107.602C1125.08 107.602 1124.02 108.664 1124.02 109.975C1124.02 111.287 1125.08 112.349 1126.39 112.349Z" fill="#12438F"/>
<path d="M1129.78 113.027C1131.09 113.027 1132.15 111.964 1132.15 110.653C1132.15 109.342 1131.09 108.279 1129.78 108.279C1128.47 108.279 1127.41 109.342 1127.41 110.653C1127.41 111.964 1128.47 113.027 1129.78 113.027Z" fill="#12438F"/>
<path d="M1135.21 113.706C1136.52 113.706 1137.58 112.643 1137.58 111.332C1137.58 110.021 1136.52 108.958 1135.21 108.958C1133.9 108.958 1132.84 110.021 1132.84 111.332C1132.84 112.643 1133.9 113.706 1135.21 113.706Z" fill="#12438F"/>
<path d="M1131.14 113.706C1132.45 113.706 1133.51 112.643 1133.51 111.332C1133.51 110.021 1132.45 108.958 1131.14 108.958C1129.83 108.958 1128.77 110.021 1128.77 111.332C1128.77 112.643 1129.83 113.706 1131.14 113.706Z" fill="#12438F"/>
<path d="M1126.39 115.062C1127.7 115.062 1128.76 113.999 1128.76 112.688C1128.76 111.377 1127.7 110.314 1126.39 110.314C1125.08 110.314 1124.02 111.377 1124.02 112.688C1124.02 113.999 1125.08 115.062 1126.39 115.062Z" fill="#12438F"/>
<path d="M1137.25 116.419C1138.56 116.419 1139.62 115.356 1139.62 114.045C1139.62 112.734 1138.56 111.671 1137.25 111.671C1135.94 111.671 1134.88 112.734 1134.88 114.045C1134.88 115.356 1135.94 116.419 1137.25 116.419Z" fill="#12438F"/>
<path d="M1115.27 112.971H1135.11V113.506C1135.11 114.611 1134.21 115.506 1133.11 115.506H1117.27C1116.17 115.506 1115.27 114.611 1115.27 113.506V112.971Z" fill="#5AA9FD"/>
<path d="M123.215 107.025C129.281 107.025 134.199 102.107 134.199 96.0409C134.199 89.9745 129.281 85.0566 123.215 85.0566C117.148 85.0566 112.23 89.9745 112.23 96.0409C112.23 102.107 117.148 107.025 123.215 107.025Z" fill="#5AA9FD"/>
<path d="M117.724 74.918H128.708V95.6192C128.708 98.6524 126.249 101.111 123.216 101.111C120.183 101.111 117.724 98.6524 117.724 95.6191V74.918Z" fill="#12438F"/>
<mask id="mask8_2028_14914" style="mask-type:alpha" maskUnits="userSpaceOnUse" x="919" y="63" width="38" height="36">
<path d="M945.594 74.1611H920.446C919.815 74.1611 919.342 73.5844 919.465 72.9658L921.361 63.4453H946.594C952.117 63.4453 956.594 67.9224 956.594 73.4453V98.3875H946.594V75.1611C946.594 74.6088 946.147 74.1611 945.594 74.1611Z" fill="#5AA9FD"/>
</mask>
<g mask="url(#mask8_2028_14914)">
<path d="M922.353 62.313L982.353 54.4521L971.849 102.691H940.588L921.919 81.4167C920.182 74.4699 920.616 68.3914 922.353 62.313Z" fill="#EA7D18"/>
</g>
<path d="M929.273 63.7442H924.203V48.5352L929.273 49.0596V63.7442Z" fill="#EA7D18"/>
<mask id="mask9_2028_14914" style="mask-type:alpha" maskUnits="userSpaceOnUse" x="913" y="46" width="27" height="6">
<path d="M936.922 46H916.208C914.821 46 913.696 47.1247 913.696 48.5121C913.696 49.8995 914.821 51.0242 916.208 51.0242H936.922C938.31 51.0242 939.435 49.8995 939.435 48.5121C939.435 47.1247 938.31 46 936.922 46Z" fill="#EA7D18"/>
</mask>
<g mask="url(#mask9_2028_14914)">
<path d="M936.922 46H916.208C914.821 46 913.696 47.1247 913.696 48.5121C913.696 49.8995 914.821 51.0242 916.208 51.0242H936.922C938.31 51.0242 939.435 49.8995 939.435 48.5121C939.435 47.1247 938.31 46 936.922 46Z" fill="#EA7D18"/>
<path d="M963.043 99.8389C984.864 99.8389 1002.55 82.1498 1002.55 60.3291C1002.55 38.5085 984.864 20.8193 963.043 20.8193C941.222 20.8193 923.533 38.5085 923.533 60.3291C923.533 82.1498 941.222 99.8389 963.043 99.8389Z" fill="#12438F"/>
</g>
<mask id="mask10_2028_14914" style="mask-type:alpha" maskUnits="userSpaceOnUse" x="899" y="63" width="30" height="28">
<path d="M909.656 74.8412V90.3248H899.672V73.2451C899.672 67.6677 904.235 63.1683 909.811 63.2461L923.97 63.4437C923.536 69.8801 926.575 70.8907 928.312 74.1619L910.674 73.8413C910.115 73.8312 909.656 74.2818 909.656 74.8412Z" fill="#FFBD00"/>
</mask>
<g mask="url(#mask10_2028_14914)">
<path d="M915.405 80.5558V99.4375H897.994V72.9014C897.994 67.3785 902.471 62.9014 907.994 62.9014H931.506V79.5558H916.405C915.853 79.5558 915.405 80.0035 915.405 80.5558Z" fill="#5AA9FD"/>
</g>
<path d="M1037.96 130.157V135.53H1034.8V134.789C1031.19 136.967 1027.4 135.982 1026.49 135.53C1025.57 135.077 1030.66 133.149 1030.66 133.149L1032.94 130.13L1037.96 130.157Z" fill="#12438F"/>
<path d="M1022.67 130.157V135.53H1019.51V134.789C1015.9 136.967 1012.11 135.982 1011.19 135.53C1010.28 135.077 1015.37 133.149 1015.37 133.149L1017.65 130.13L1022.67 130.157Z" fill="#12438F"/>
<path d="M1018.29 24.5266C1018.29 25.3843 1018.22 27.9733 1018.96 29.2501C1019.79 30.6547 1021.44 30.5997 1021.44 30.5997L1021 39.2789L1027.95 34.5055L1026.1 28.5463C1026.1 28.5463 1026.29 25.5066 1025.49 23.9642C1024.63 22.3056 1023.27 21.6024 1021.44 21.6025C1019.41 21.6025 1018.29 22.7253 1018.29 24.5266Z" fill="#EA7D18"/>
<path d="M1020.81 22.9147C1020.41 23.1494 1020.18 23.271 1019.7 23.2168C1019.7 23.2168 1018.32 25.6365 1016.93 22.9143C1015.55 20.1921 1018.32 20.7971 1018.32 20.7971C1018.04 18.6792 1019.42 18.3766 1020.81 20.1921C1021.36 18.9817 1022.74 18.9817 1022.9 20.7647C1024.01 20.1175 1024.73 20.773 1025.2 22.2137C1025.28 22.4634 1026.39 21.2292 1026.39 22.8172C1026.39 24.4052 1025.54 23.662 1025.6 24.0082C1024.73 24.1553 1023.89 23.4869 1023.18 22.8824C1022.74 23.5193 1021.85 23.4404 1020.81 22.9147Z" fill="#12438F"/>
<mask id="mask11_2028_14914" style="mask-type:alpha" maskUnits="userSpaceOnUse" x="1022" y="79" width="17" height="52">
<path d="M1022.56 80.9026L1029.98 130.613H1038.08V79.3281L1022.56 80.9026Z" fill="#12438F"/>
</mask>
<g mask="url(#mask11_2028_14914)">
<path d="M1022.56 80.9026L1029.98 130.613H1038.08V79.3281L1022.56 80.9026Z" fill="#12438F"/>
</g>
<mask id="mask12_2028_14914" style="mask-type:alpha" maskUnits="userSpaceOnUse" x="1008" y="80" width="15" height="51">
<path d="M1008.04 80.1729L1014.34 130.727H1023L1022.67 80.6795L1008.04 80.1729Z" fill="#12438F"/>
</mask>
<g mask="url(#mask12_2028_14914)">
<path d="M1008.04 80.6777L1014.34 130.725H1023L1022.67 80.6777H1008.04Z" fill="#12438F"/>
</g>
<path d="M1027.39 33.3232C1027.39 33.3232 1037.38 34.1912 1042.23 42.4431C1047.08 50.695 1050.27 61.9943 1048.52 67.7478C1047.32 71.7169 1039.47 70.4038 1039.47 70.4038V81.3562H1006.57C1006.57 81.3562 1004.6 57.507 1007.43 48.0789C1010.8 36.8323 1021.32 33.7572 1021.32 33.7572C1023.49 35.9271 1024.55 36.3509 1027.39 33.3232Z" fill="#12438F"/>
<path d="M1026.12 26.3777C1025.68 28.5477 1023.95 31.1516 1022.21 31.1516C1020.47 31.1516 1019.17 30.1801 1019.17 28.9817C1021.54 31.1097 1026.96 26.6734 1025.25 23.3398C1025.73 23.3398 1026.55 24.2078 1026.12 26.3777Z" fill="#12438F"/>
<path d="M993.996 38.7026C993.996 40.012 996.746 39.6187 996.746 39.6187V50.487L1000.41 50.2251L1000.67 39.4882V35.5601L995.567 34.6436C995.567 34.6436 995.177 35.3266 994.785 36.174C994.736 36.2818 993.996 36.3942 993.996 36.7245C993.996 37.0549 994.492 36.9069 994.433 37.0549C994.176 37.6973 993.996 38.2363 993.996 38.7026Z" fill="#EA7D18"/>
<path d="M993.587 109.704L999.23 111.874L1003.13 110.572C1003.13 110.572 1001.83 122.724 1002.27 136.177L994.889 136.611C995.801 134.961 996.786 134.677 998.795 134.441L993.587 109.704Z" fill="#5AA9FD"/>
<path d="M998.789 109.704L1002.26 111.44H1007.03L1005.76 135.169L997.487 136.611L1002.26 133.139L998.789 109.704Z" fill="#12438F"/>
<path d="M996.084 49.1729C996.084 49.1729 988.906 110.708 990.569 110.708C992.232 110.708 1009.63 114.763 1009.63 108.833C1009.63 102.904 1000.27 49.1729 1000.27 49.1729C998.6 49.6503 997.669 49.7699 996.084 49.1729Z" fill="#12438F"/>
<path d="M999.66 100.151C1000.53 104.057 1019.62 102.321 1019.62 102.321C1019.62 102.321 1020.45 51.6549 1016.92 47.7267C1013.39 43.7986 1007.61 45.7627 1004.73 45.108C1001.85 44.4533 1000.67 40.918 1000.67 40.918C1000.67 40.918 998.792 96.245 999.66 100.151Z" fill="#5AA9FD"/>
<path d="M988.366 49.3054C991.405 46.7776 994.286 46.0929 996.746 43.1514C997.353 57.0249 995.903 77.9991 990.106 99.2904L984.898 100.158C984.898 100.158 985.755 77.4611 985.329 70.2131C984.903 62.965 985.327 51.8333 988.366 49.3054Z" fill="#5AA9FD"/>
<path d="M994.126 35.2983C994.2 35.5206 996.352 36.3426 998.054 36.6045C999.76 36.8663 1000.04 36.0271 1000.15 36.0839C1000.28 36.1489 999.23 37.652 999.49 38.1757C999.76 38.6995 1000.54 39.8779 1002.37 40.0088C1004.21 40.1398 1005.26 38.5717 1005.26 38.5717C1005.26 38.5717 1004.42 38.1103 1003.95 37.2624C1003.43 36.3404 1003.24 35.0074 1002.51 34.5127C1001.78 34.0227 1001.07 33.9889 1001.07 33.9889C1001.07 33.9889 1000.15 32.1529 997.268 32.0217C994.388 31.8905 993.995 34.9055 994.126 35.2983Z" fill="#12438F"/>
<path d="M1006.54 135.168C1006.94 136.756 1004.55 137.947 1001.24 138.456C997.925 138.965 996.614 137.938 996.614 137.3C996.614 136.661 996.951 135.565 999.51 135.565C997.771 137.3 1006.14 133.58 1006.54 135.168Z" fill="#12438F"/>
<path d="M1002.97 135.169C1002.97 135.808 1002.17 137.154 998.857 137.663C995.542 138.171 994.232 137.145 994.232 136.506C994.232 135.868 994.568 134.772 997.122 134.772C995.388 136.506 1002.97 134.53 1002.97 135.169Z" fill="#12438F"/>
<path d="M1021.08 52.6831C1020.25 52.48 1016.96 51.5429 1016.97 52.1385C1016.98 52.7341 1020.62 53.714 1020.76 53.853C1020.69 53.8433 1016.8 52.39 1016.54 53.073C1016.29 53.7561 1019.98 54.7373 1020.32 54.9205C1012.57 52.3352 1020.03 56.7273 1021.61 57.2848C1022.83 58.0917 1024.45 58.691 1026.1 58.7733C1028.49 59.5264 1030.33 60.0513 1030.33 60.0513L1031.38 57.2117C1031.38 57.2117 1028.33 53.6292 1027.27 52.8566C1026.22 52.0839 1024.86 52.0683 1023.4 51.5293C1022.52 50.5596 1022.1 51.9173 1022.88 52.4687C1023.52 52.9179 1024.01 53.0465 1024.01 53.0465C1024.01 53.0465 1021.92 52.8862 1021.08 52.6831Z" fill="#EA7D18"/>
<path fill-rule="evenodd" clip-rule="evenodd" d="M937.689 61.4159C936.234 60.1626 934.413 59.4819 932.537 59.4893C930.309 59.4893 928.107 61.5548 926.567 62.8814C925.03 61.5408 922.824 59.4893 920.596 59.4893C918.721 59.4838 916.9 60.1645 915.444 61.4159C914.665 62.1059 914.042 62.9706 913.619 63.9479C913.196 64.9252 912.983 65.9898 912.997 67.0648C912.997 71.1543 914.95 73.5182 918.17 76.9233L918.195 76.9506L925.668 84.4583C925.912 84.7015 926.234 84.8376 926.569 84.8376C926.904 84.8376 927.226 84.7015 927.47 84.4583L934.943 76.9684L934.968 76.9412C938.188 73.5361 940.141 71.1721 940.141 67.0826C940.158 66.0039 939.945 64.9355 939.522 63.9554C939.097 62.9743 938.472 62.1069 937.689 61.4159Z" stroke="#12438F" stroke-width="5"/>
<path d="M523.5 128.435C525.133 128.435 526.457 127.111 526.457 125.478C526.457 123.845 525.133 122.521 523.5 122.521C521.867 122.521 520.542 123.845 520.542 125.478C520.542 127.111 521.867 128.435 523.5 128.435Z" fill="#12438F"/>
<path d="M540.399 127.736C541.566 127.736 542.511 126.791 542.511 125.624C542.511 124.457 541.566 123.512 540.399 123.512C539.232 123.512 538.287 124.457 538.287 125.624C538.287 126.791 539.232 127.736 540.399 127.736Z" fill="#12438F"/>
<path d="M532.791 126.817C533.958 126.817 534.903 125.872 534.903 124.705C534.903 123.539 533.958 122.593 532.791 122.593C531.624 122.593 530.679 123.539 530.679 124.705C530.679 125.872 531.624 126.817 532.791 126.817Z" fill="#12438F"/>
<path d="M320.62 22.3271C313.986 24.3794 310.045 24.4772 303.042 22.3271V49.1128C309.545 50.7152 313.181 51.7027 320.62 49.1128V22.3271Z" fill="#5AA9FD"/>
<path d="M267.723 128.911V134.27H270.873V133.531C274.476 135.703 278.259 134.721 279.169 134.27C280.079 133.818 275.005 131.895 275.005 131.895L272.727 128.884L267.723 128.911Z" fill="#12438F"/>
<path d="M282.976 128.911V134.27H286.127V133.531C289.73 135.703 293.513 134.721 294.423 134.27C295.332 133.818 290.259 131.895 290.259 131.895L287.98 128.884L282.976 128.911Z" fill="#12438F"/>
<path d="M283.093 79.7853L275.689 129.368H267.613V78.2148L283.093 79.7853Z" fill="#12438F"/>
<path d="M276.101 125.854L275.703 129.438H267.634L267.739 125.854H276.101Z" fill="#5AA9FD"/>
<path d="M297.233 79.5586L291.274 129.478H282.637L282.973 79.5586H297.233Z" fill="#12438F"/>
<path d="M291.631 126.019L291.233 129.603H282.566L282.672 126.019H291.631Z" fill="#5AA9FD"/>
<path d="M300.495 29.7672C300.041 30.1443 298.453 32.943 298.453 32.943L300.722 35.8919C300.722 35.8919 304.124 34.0772 304.351 33.3967C304.578 32.7161 304.351 31.3553 304.351 31.3553C304.351 31.3553 305.095 31.54 305.258 31.1284C305.567 30.3519 303.897 29.7671 303.444 29.5404C302.99 29.3137 300.949 29.3902 300.495 29.7672Z" fill="#EA7D18"/>
<path d="M299.338 32.292L298.548 32.8849L300.524 35.6513L301.512 35.0585L299.338 32.292Z" fill="white"/>
<path d="M298.934 32.4854L296.365 33.2758L293.401 35.647L294.389 42.1678C297.365 39.6544 298.888 38.1905 301.305 35.4494L298.934 32.4854Z" fill="#12438F"/>
<path d="M317.114 32.2886C317.114 32.8814 316.916 37.031 317.509 37.6238C318.102 38.2166 320.275 39.4022 320.275 39.4022C321.664 37.8506 322.297 35.3947 322.297 33.7206C322.297 32.0465 321.557 31.323 321.472 32.3768C321.388 33.4306 321.472 31.628 321.472 31.628C321.472 30.6451 320.889 30.613 320.689 31.1937C320.992 29.0257 320.387 29.0185 320.217 29.8661C320.039 30.7566 318.695 34.4622 318.299 34.067C317.904 33.6718 317.904 32.8814 317.904 32.2886C317.904 31.6958 317.114 31.6958 317.114 32.2886Z" fill="#EA7D18"/>
<path d="M317.312 37.2314L316.917 37.8242L319.881 40.393L320.473 39.6026C319.881 38.417 318.3 37.2314 317.312 37.2314Z" fill="white"/>
<mask id="mask13_2028_14914" style="mask-type:alpha" maskUnits="userSpaceOnUse" x="264" y="37" width="57" height="55">
<path d="M264.549 90.9777C277.986 94.7321 297.231 79.9529 297.231 79.9529V57.3856C297.231 57.3856 306.243 58.176 309.009 57.3856C311.776 56.5952 320.47 41.5775 320.47 41.5775C320.47 39.7991 318.692 37.8231 316.913 37.4279L306.638 46.3199C306.638 46.3199 297.746 42.7631 295.77 41.3799C293.794 39.9967 292.016 36.0447 284.309 37.4279C280.824 38.0535 272.453 44.9367 268.699 58.5712C264.944 72.2056 264.549 90.9777 264.549 90.9777Z" fill="#12438F"/>
</mask>
<g mask="url(#mask13_2028_14914)">
<path d="M264.549 90.9777C277.986 94.7321 297.231 79.9529 297.231 79.9529V57.3856C297.231 57.3856 306.243 58.176 309.009 57.3856C311.776 56.5952 320.47 41.5775 320.47 41.5775C320.47 39.7991 318.692 37.8231 316.913 37.4279L306.638 46.3199C306.638 46.3199 297.746 42.7631 295.77 41.3799C293.794 39.9967 292.016 36.0447 284.309 37.4279C280.824 38.0535 272.453 44.9367 268.699 58.5712C264.944 72.2056 264.549 90.9777 264.549 90.9777Z" fill="#12438F"/>
<path d="M298.061 57.3503L266.253 56.0947L257.464 100.04L302.665 79.9506L298.061 57.3503Z" fill="#12438F"/>
<path d="M262.06 55.0364C259.002 67.0649 264.257 78.7828 273.799 81.2091C283.34 83.6353 293.555 75.8512 296.614 63.8227C299.672 51.7942 294.417 40.0763 284.875 37.65C275.333 35.2238 265.119 43.0079 262.06 55.0364Z" fill="#12438F"/>
<path d="M265.836 72.8367C266.824 75.0103 271.276 79.5332 271.276 79.5332L270.858 80.3702C268.765 79.5331 266.254 77.022 265.417 75.3478C265.417 75.3478 265.638 72.402 265.836 72.8367Z" fill="#EA7D18"/>
</g>
<path d="M291.77 70.3839C287.533 75.7586 281.307 80.8471 269.588 78.3359L272.936 82.5212L281.307 82.1026C281.307 82.1026 289.259 78.7545 293.444 72.0582C297.629 65.3619 297.629 60.758 297.629 60.758V56.9912C297.629 56.9912 296.007 65.0093 291.77 70.3839Z" fill="#EA7D18"/>
<path d="M289.441 35.6502C289.441 37.3963 295.369 39.5087 296.95 38.5207C297.585 38.1238 297.742 36.753 297.702 35.2551C297.702 35.2551 298.555 35.1894 298.531 34.8598C298.501 34.4551 297.581 33.4618 297.537 33.0814C297.373 31.6542 297.148 30.5126 297.148 30.5126C297.148 30.5126 295.998 28.0479 294.579 28.0479C293.16 28.0479 289.441 33.9041 289.441 35.6502Z" fill="#EA7D18"/>
<path d="M285.308 37.228C285.308 37.228 286.302 38.0184 287.284 38.0184C288.266 38.0184 294.991 40.9824 294.991 40.9824C295.188 37.8208 293.608 35.0544 289.655 34.0664L285.308 37.228Z" fill="white"/>
<path d="M285.105 37.2632L292.639 40.6114L294.003 40.1943C294.003 37.6255 292.694 36.2551 289.063 34.4639L285.105 37.2632Z" fill="#12438F"/>
<path d="M289.051 30.9063C289.249 33.0799 289.051 34.2656 289.051 34.2656C293.596 33.4751 295.401 32.1956 298.141 30.1159L296.955 29.5231C296.955 29.5231 295.967 26.9542 293.398 26.5591C290.829 26.1639 288.853 28.7327 289.051 30.9063Z" fill="#12438F"/>
<path d="M270.018 78.2764H283.094C284.198 78.2764 285.094 79.1718 285.094 80.2764V86.321C285.094 87.4255 284.198 88.321 283.094 88.321H270.018C268.913 88.321 268.018 87.4255 268.018 86.321V80.2764C268.018 79.1718 268.913 78.2764 270.018 78.2764Z" fill="#EA7D18"/>
<path d="M274.709 66.2472L274.21 66.2112L274.184 66.5788L274.527 66.7129L274.709 66.2472ZM274.733 66.2565L274.551 66.7222L274.888 66.8538L275.118 66.5752L274.733 66.2565ZM277.249 63.2154L277.634 63.5341L278.075 63.0013L277.431 62.7497L277.249 63.2154ZM274.992 62.3334L275.173 61.8677L274.542 61.6209L274.493 62.2975L274.992 62.3334ZM273.404 57.8642L273.586 57.3985L272.935 57.1445L272.904 57.8419L273.404 57.8642ZM275.253 58.587L275.753 58.616L275.774 58.2534L275.435 58.1213L275.253 58.587ZM275.134 60.6426L274.635 60.6136L274.613 60.9762L274.952 61.1083L275.134 60.6426ZM278.239 61.8559L278.057 62.3216L278.404 62.457L278.633 62.164L278.239 61.8559ZM279.499 60.2457L279.681 59.78L279.334 59.6446L279.105 59.9376L279.499 60.2457ZM281.405 60.9906L281.789 61.3114L282.235 60.778L281.587 60.5249L281.405 60.9906ZM274.991 68.6601L274.809 69.1258L275.144 69.2567L275.375 68.9809L274.991 68.6601ZM272.956 67.8651L272.457 67.8427L272.441 68.2005L272.774 68.3308L272.956 67.8651ZM274.527 66.7129L274.551 66.7222L274.915 65.7908L274.891 65.7815L274.527 66.7129ZM275.118 66.5752L277.634 63.5341L276.864 62.8967L274.348 65.9378L275.118 66.5752ZM277.431 62.7497L275.173 61.8677L274.81 62.7992L277.067 63.6811L277.431 62.7497ZM274.493 62.2975L274.21 66.2112L275.208 66.2832L275.49 62.3694L274.493 62.2975ZM273.456 67.8874L273.903 57.8866L272.904 57.8419L272.457 67.8427L273.456 67.8874ZM273.222 58.33L275.071 59.0527L275.435 58.1213L273.586 57.3985L273.222 58.33ZM274.754 58.5579L274.635 60.6136L275.633 60.6717L275.753 58.616L274.754 58.5579ZM274.952 61.1083L278.057 62.3216L278.421 61.3902L275.316 60.1769L274.952 61.1083ZM278.633 62.164L279.893 60.5537L279.105 59.9376L277.845 61.5479L278.633 62.164ZM279.317 60.7114L281.223 61.4564L281.587 60.5249L279.681 59.78L279.317 60.7114ZM281.022 60.6699L274.608 68.3393L275.375 68.9809L281.789 61.3114L281.022 60.6699ZM275.173 68.1944L273.138 67.3994L272.774 68.3308L274.809 69.1258L275.173 68.1944Z" fill="white"/>
<path d="M284.79 56.8826C286.501 52.503 283.865 46.4624 281.499 45.1396C281.477 45.6638 281.357 46.2933 281.06 47.0524C280.132 49.4291 275.099 49.2183 273.595 53.0688C273.136 54.2439 272.771 56.4235 273.699 57.9304C274.728 56.564 276.693 56.0246 278.503 56.7319C280.314 57.4396 281.392 59.1678 281.223 60.8701C281.802 60.7075 283.646 59.8125 284.79 56.8826Z" stroke="white"/>
<path d="M871.809 21.1455C868.693 23.4406 866.879 24.4525 863.416 25.4434C863.416 25.4434 862.949 23.6217 862.949 22.4349C862.949 21.2481 864.348 19 867.146 19C869.944 19 871.809 21.1455 871.809 21.1455Z" fill="#12438F"/>
<path d="M872.618 20.6104C873.423 21.013 870.604 23.8313 867.785 25.0397C864.966 26.2481 863.356 26.2478 863.356 25.4424C863.356 24.6369 864.966 24.6371 867.383 23.8318C869.799 23.0264 871.813 20.2077 872.618 20.6104Z" fill="#12438F"/>
<path d="M849.674 126.757V131.889H852.692V131.182C856.143 133.262 859.766 132.322 860.638 131.889C861.509 131.457 856.649 129.615 856.649 129.615L854.467 126.731L849.674 126.757Z" fill="#12438F"/>
<path d="M864.292 126.757V131.889H867.31V131.182C870.761 133.262 874.384 132.322 875.255 131.889C876.127 131.457 871.267 129.615 871.267 129.615L869.085 126.731L864.292 126.757Z" fill="#12438F"/>
<path d="M871.587 24.3506C871.587 25.2114 871.661 27.8096 870.91 29.091C870.084 30.5007 868.427 30.4454 868.427 30.4454L865.718 38.2333L862.445 32.5899L864.771 27.8495C864.771 27.8495 863.561 25.3342 864.364 23.7862C865.226 22.1217 866.59 21.416 868.427 21.416C870.458 21.416 871.587 22.5428 871.587 24.3506Z" fill="#EA7D18"/>
<mask id="mask14_2028_14914" style="mask-type:alpha" maskUnits="userSpaceOnUse" x="849" y="78" width="16" height="50">
<path d="M864.367 79.7063L857.275 127.198H849.539V78.2021L864.367 79.7063Z" fill="#12438F"/>
</mask>
<g mask="url(#mask14_2028_14914)">
<path d="M864.367 79.7063L857.275 127.198H849.539V78.2021L864.367 79.7063Z" fill="#12438F"/>
<path d="M862.959 121.29H846.85V127.733H862.959V121.29Z" fill="#5AA9FD"/>
</g>
<mask id="mask15_2028_14914" style="mask-type:alpha" maskUnits="userSpaceOnUse" x="863" y="79" width="16" height="49">
<path d="M878.246 79.0059L872.228 127.303H863.955L864.278 79.4899L878.246 79.0059Z" fill="#12438F"/>
</mask>
<g mask="url(#mask15_2028_14914)">
<path d="M878.246 79.4873L872.228 127.301H863.955L864.278 79.4873H878.246Z" fill="#12438F"/>
<path d="M877.475 121.29H861.366V127.733H877.475V121.29Z" fill="#5AA9FD"/>
</g>
<mask id="mask16_2028_14914" style="mask-type:alpha" maskUnits="userSpaceOnUse" x="839" y="32" width="42" height="49">
<path d="M865.024 33.5032L865.454 37.3712L867.065 33.5032L869.537 33.0734L869.644 34.2553C869.644 34.2553 875.231 32.2138 878.455 42.9584C881.157 51.9657 879.637 80.1345 879.637 80.1345H848.207V69.6711C848.207 69.6711 840.712 70.9256 839.559 67.1336C837.889 61.6369 843.428 47.3986 845.576 42.9584C850.411 32.966 858.685 34.2553 858.685 34.2553L860.726 32.1064L865.024 33.5032Z" fill="#12438F"/>
</mask>
<g mask="url(#mask16_2028_14914)">
<path d="M865.024 33.5032L865.454 37.3712L867.065 33.5032L869.537 33.0734L869.644 34.2553C869.644 34.2553 875.231 32.2138 878.455 42.9584C881.157 51.9657 879.637 80.1345 879.637 80.1345H848.207V69.6711C848.207 69.6711 840.712 70.9256 839.559 67.1336C837.889 61.6369 843.428 47.3986 845.576 42.9584C850.411 32.966 858.685 34.2553 858.685 34.2553L860.726 32.1064L865.024 33.5032Z" fill="#12438F"/>
</g>
<path d="M866.118 60.4623C866.842 60.7186 866.469 61.4965 866.186 61.689C866.303 61.6991 866.706 62.5668 865.874 62.8124C866.505 63.3454 865.378 64.5669 863.76 64.7603C862.44 65.2822 860.771 65.5066 859.187 65.2162C856.758 65.4196 854.903 65.5229 854.903 65.5229L854.495 62.4881C854.495 62.4881 858.129 59.6428 859.295 59.1197C860.46 58.5965 861.751 58.8865 863.253 58.6847C864.29 57.9272 864.403 59.3587 863.547 59.7265C862.85 60.0261 862.354 60.0413 862.354 60.0413C862.354 60.0413 865.394 60.206 866.118 60.4623Z" fill="#EA7D18"/>
<path d="M854.91 62.4932L854.117 62.6693L855.121 67.183L855.913 67.0069L854.91 62.4932Z" fill="#F3F3F3"/>
<path d="M860.618 46.011C860.458 43.9136 858.121 41.9982 856.852 41.9287C856.948 42.1441 857.025 42.4209 857.052 42.7845C857.139 43.9227 854.966 44.8225 855.107 46.6665C855.15 47.2293 855.435 48.178 856.133 48.6028C856.293 47.8515 857.016 47.25 857.925 47.1805C858.836 47.1109 859.641 47.5955 859.913 48.3139C860.126 48.1351 860.726 47.4142 860.618 46.011Z" stroke="white"/>
<path d="M881.726 80.2489C882.254 80.9302 882.952 80.259 883.057 79.8894C883.109 80.0099 884.176 80.1342 884.145 79.1605C884.935 79.646 885.84 78.0137 885.476 76.2213C885.568 74.6301 885.218 72.7717 884.351 71.1857C883.711 68.5244 883.168 66.5107 883.168 66.5107L879.789 67.1453C879.789 67.1453 878.037 72.0218 877.89 73.4486C877.743 74.8754 878.507 76.1496 878.821 77.8211C878.379 79.1939 879.945 78.8094 880.035 77.7679C880.109 76.9194 879.95 76.3847 879.95 76.3847C879.95 76.3847 881.197 79.5675 881.726 80.2489Z" fill="#EA7D18"/>
<path d="M870.214 44.776C870.214 44.776 875.914 38.8802 877.463 41.5542C881.892 49.2061 884.711 70.147 884.711 70.147L871.422 71.3551L870.214 44.776Z" fill="#12438F"/>
<path d="M747.991 48.46H768.146H779.774L789.464 85.2815L768.146 83.3435L750.704 93.421L736.363 94.5837L747.991 48.46Z" fill="#5AA9FD"/>
<path d="M679.359 118.068C686.003 114.203 689.611 111.656 695.358 106.462L698.275 110.489C698.275 110.489 692.614 120.967 685.986 121.382C679.357 121.797 679.359 118.068 679.359 118.068Z" fill="#12438F"/>
<path d="M717.754 84.1191L792.559 84.1192L791.397 108.951H719.879L717.754 84.1191Z" fill="#12438F"/>
<path d="M745.664 47.8737C745.664 47.3487 746.074 46.9127 746.598 46.8766C760.712 45.9028 768.888 45.8733 782.718 46.8736C783.24 46.9114 783.648 47.3467 783.648 47.8703V48.3442C783.648 48.8703 783.237 49.3068 782.712 49.3414C768.66 50.2674 760.506 50.2008 746.605 49.3378C746.078 49.3051 745.664 48.8679 745.664 48.3402V47.8737Z" fill="#12438F"/>
<path d="M741.919 51.3607L747.305 50.9463L741.919 74.9772L734.808 77.5306C737.521 68.616 739.766 61.1766 741.919 51.3607Z" fill="#5AA9FD"/>
<path d="M747.726 51.7763L748.141 48.876C742.336 48.876 741.506 50.5333 741.926 51.7763H747.726Z" fill="#12438F"/>
<path d="M777.454 49.2891L780.462 49.2892C784.835 61.6786 787.291 70.9031 789.577 84.9211L784.818 84.5071C782.613 70.3883 782.015 61.5437 777.454 49.2891Z" fill="#12438F"/>
<path d="M756.008 103.151H724.519V112.267H756.008V103.151Z" fill="#12438F"/>
<path d="M707.533 93.2074C712.562 83.1218 720.675 78.8535 742.337 74.1484L743.728 96.1346L720.377 96.522L707.533 93.2074Z" fill="#EA7D18"/>
<path d="M711.261 128.839C721.329 128.839 729.491 120.677 729.491 110.608C729.491 100.54 721.329 92.3779 711.261 92.3779C701.193 92.3779 693.031 100.54 693.031 110.608C693.031 120.677 701.193 128.839 711.261 128.839Z" fill="#5AA9FD"/>
<path d="M768.438 128.01C778.506 128.01 786.668 119.848 786.668 109.78C786.668 99.7118 778.506 91.5498 768.438 91.5498C758.369 91.5498 750.208 99.7118 750.208 109.78C750.208 119.848 758.369 128.01 768.438 128.01Z" fill="#5AA9FD"/>
<path d="M710.848 119.982C715.653 119.982 719.549 116.086 719.549 111.281C719.549 106.476 715.653 102.58 710.848 102.58C706.043 102.58 702.147 106.476 702.147 111.281C702.147 116.086 706.043 119.982 710.848 119.982Z" fill="#12438F"/>
<path d="M768.852 118.895C773.658 118.895 777.553 114.999 777.553 110.194C777.553 105.389 773.658 101.493 768.852 101.493C764.047 101.493 760.151 105.389 760.151 110.194C760.151 114.999 764.047 118.895 768.852 118.895Z" fill="#12438F"/>
<path d="M710.841 114.751C712.901 114.751 714.57 113.081 714.57 111.022C714.57 108.962 712.901 107.293 710.841 107.293C708.782 107.293 707.112 108.962 707.112 111.022C707.112 113.081 708.782 114.751 710.841 114.751Z" fill="#EA7D18"/>
<path d="M768.853 113.923C770.912 113.923 772.582 112.253 772.582 110.194C772.582 108.134 770.912 106.465 768.853 106.465C766.794 106.465 765.124 108.134 765.124 110.194C765.124 112.253 766.794 113.923 768.853 113.923Z" fill="#EA7D18"/>
<path d="M767.599 49.2891H761.799V83.2638H767.599V49.2891Z" fill="#12438F"/>
<path d="M789.986 88.2347C789.572 91.5517 784.186 87.818 768.441 87.818C752.697 87.818 747.725 103.15 747.725 103.15C747.725 103.15 750.211 80.7774 770.098 81.6054C789.986 82.4335 790.4 84.9177 789.986 88.2347Z" fill="#EA7D18"/>
<path d="M751.466 49.0879L747.716 49.088C743.344 61.4775 737.512 86.4452 744.102 96.9102L749.373 91.8712C743.988 81.0991 746.905 61.3425 751.466 49.0879Z" fill="#12438F"/>
<path d="M669.305 102.723L690.542 99.623C690.542 99.623 686.85 122.721 674.574 126.59C667.859 128.707 653.414 127.112 653.414 127.112C663.491 120.523 669.305 112.413 669.305 102.723Z" fill="#12438F"/>
<path d="M790.805 81.9492C790.805 80.8446 791.7 79.9492 792.805 79.9492H795.434C796.539 79.9492 797.434 80.8446 797.434 81.9492V112.753C797.434 113.857 796.539 114.753 795.434 114.753H792.805C791.7 114.753 790.805 113.857 790.805 112.753V81.9492Z" fill="#12438F"/>
<path d="M797.849 108.122C798.993 108.122 799.921 104.412 799.921 99.8353C799.921 95.2588 798.993 91.5488 797.849 91.5488C796.705 91.5488 795.777 95.2588 795.777 99.8353C795.777 104.412 796.705 108.122 797.849 108.122Z" fill="#12438F"/>
<path d="M681.168 119.483C683.227 119.483 684.897 117.814 684.897 115.754C684.897 113.695 683.227 112.025 681.168 112.025C679.108 112.025 677.439 113.695 677.439 115.754C677.439 117.814 679.108 119.483 681.168 119.483Z" fill="#EA7D18"/>
<path d="M758.206 34.0226C758.206 33.1121 758.944 32.374 759.855 32.374C760.765 32.374 761.503 33.1121 761.503 34.0226V47.2111H758.206V34.0226Z" fill="#12438F"/>
<path d="M613.674 64.4248C613.674 64.4248 616.716 67.3015 619.712 67.3015C624.027 79.6428 650.798 80.4204 653.244 64.4248H613.674Z" fill="#5AA9FD"/>
<path d="M560.802 61.7892C561.373 62.6006 563.026 65.0984 564.583 65.8084C566.296 66.5895 567.822 65.4387 567.822 65.4387L575.924 69.525L574.92 61.7892L569.547 60.5676C569.547 60.5676 569.019 57.3949 567.236 56.4679C565.32 55.471 563.567 55.7098 561.835 56.9278C559.92 58.2749 559.603 60.0853 560.802 61.7892Z" fill="#EA7D18"/>
<path d="M558.839 60.3189C562.894 59.764 565.015 59.1949 568.372 57.3953C568.372 57.3953 567.384 55.67 566.509 54.7698C565.635 53.8696 562.918 53.195 560.796 55.2562C558.673 57.3174 558.839 60.3189 558.839 60.3189Z" fill="#12438F"/>
<path d="M557.833 60.5063C557.518 61.4051 561.733 61.4659 564.761 60.3057C567.79 59.1455 569.011 57.9585 568.418 57.3476C567.825 56.7367 566.603 57.9236 564.177 59.0928C561.751 60.2621 558.147 59.6075 557.833 60.5063Z" fill="#12438F"/>
<path d="M569.081 66.282C569.081 67.851 567.904 68.6356 566.742 68.6356C565.579 68.6356 563.982 68.2433 563.982 66.282C563.982 64.3207 565.969 64.7129 566.348 64.7129C566.726 64.7129 566.335 59.6172 565.159 60.0095L563.59 58.8327L566.348 56.0869C566.348 56.0869 568.297 56.8714 568.689 58.0482C569.081 59.225 569.802 60.7007 569.866 60.794C569.898 60.8412 569.081 61.1863 569.081 61.1863C569.081 61.1863 568.297 60.4018 567.512 60.4018C566.728 60.4018 566.69 61.648 567.12 62.3631C567.357 62.7582 567.5 63.0064 567.904 63.1439C567.904 63.1439 569.081 65.2063 569.081 66.282Z" fill="#12438F"/>
<path d="M608.94 96.9456C608.94 96.9456 610.21 115.535 594.579 112.578C578.947 109.62 571.026 96.4144 571.026 96.4144L561.628 97.6721C561.628 97.6721 559.122 88.891 562.258 80.1122C565.394 71.3335 574.171 78.7515 579.701 82.3161C585.232 85.8806 608.94 96.9456 608.94 96.9456Z" fill="#EA7D18"/>
<path d="M593.612 97.0425L569.784 75.7228V73.8416L574.173 61.3006C601.479 59.6933 609.787 89.6394 609.787 97.7913L593.612 97.0425Z" fill="#12438F"/>
<path d="M597.112 76.2451C601.081 78.4368 603.067 80.0613 606.406 83.4271" stroke="white"/>
<path d="M589.257 110.211L577.343 112.719L592.892 112.156L593.315 120.605C593.315 120.605 561.635 126.514 558.5 117.109C555.365 107.703 576.089 102.059 576.089 102.059L589.257 110.211Z" fill="#EA7D18"/>
<path d="M580.916 115.771L580.827 119.15L572.37 119.352V115.536L580.916 115.771Z" fill="#5AA9FD"/>
<path d="M589.512 112.156H592.892L593.314 120.605L589.512 121.213V112.156Z" fill="#5AA9FD"/>
<path d="M563.514 97.0428C563.514 97.0428 557.44 103.314 555.362 103.314C553.284 103.314 549.719 99.551 549.719 99.551C555.866 97.44 558.622 95.6404 562.887 92.0264L563.514 97.0428Z" fill="#12438F"/>
<path d="M556.848 107.03C553.282 109.712 551.335 109.917 547.932 108.516C545.056 110.005 543.441 110.829 540.502 110.002C543.938 107.175 545.545 105.443 547.932 101.829C547.932 101.829 542.731 102.317 542.731 101.086C544.96 98.8575 555.362 99.6003 555.362 99.6003L556.848 107.03Z" fill="#EA7D18"/>
<path d="M562.259 108.957C562.259 108.957 557.876 108.33 555.993 107.076C554.109 105.822 554.11 103.314 554.737 100.806C555.365 98.2979 559.751 98.2979 559.751 98.2979L562.259 108.957Z" fill="#5AA9FD"/>
<path d="M585.453 85.7568C585.453 85.7568 576.686 108.957 566.018 109.584C555.35 110.211 556.621 98.9248 561.008 97.0437C565.395 95.1625 572.92 87.0109 574.166 73.8428L585.453 85.7568Z" fill="#12438F"/>
<path d="M580.117 119.017V124.915H576.649V124.102C572.683 126.493 568.52 125.412 567.519 124.915C566.518 124.418 572.102 122.302 572.102 122.302L574.609 118.988L580.117 119.017Z" fill="#12438F"/>
<path d="M593.037 113.436L598.941 113.346L598.994 116.817L598.18 116.83C599.638 119.167 599.871 121.593 599.718 123.389C599.613 124.615 594.517 124.069 594.517 124.069C594.206 123.135 596.853 121.731 596.853 121.731C596.335 120.613 595.45 119.393 595.45 119.393L593.092 118.95L593.037 113.436Z" fill="#12438F"/>
<path d="M409.721 123.13C409.721 123.13 411.02 123.13 403.837 123.13C396.653 123.13 390.83 117.168 390.83 109.814C390.83 102.459 405.964 90.0793 412.235 90.4976C418.506 90.916 428.121 109.814 428.121 109.814L416.416 111.401L409.721 123.13Z" fill="#12438F"/>
<path d="M408.801 123.13C415.984 123.13 421.808 117.168 421.808 109.814C421.808 102.459 415.984 96.4971 408.801 96.4971C401.617 96.4971 395.794 102.459 395.794 109.814C395.794 117.168 401.617 123.13 408.801 123.13Z" fill="#5AA9FD"/>
<path d="M365.013 120.747C365.013 120.747 366.249 120.747 359.415 120.747C352.581 120.747 347.042 115.075 347.042 108.079C347.042 101.082 352.581 95.4102 359.415 95.4102C366.249 95.4102 365.013 120.747 365.013 120.747Z" fill="#5AA9FD"/>
<path d="M364.127 120.748C370.961 120.748 376.501 115.076 376.501 108.079C376.501 101.083 370.961 95.4111 364.127 95.4111C357.293 95.4111 351.753 101.083 351.753 108.079C351.753 115.076 357.293 120.748 364.127 120.748Z" fill="#12438F"/>
<path d="M467.491 111.484C467.491 111.484 468.419 111.484 463.292 111.484C458.165 111.484 454.009 107.229 454.009 101.98C454.009 96.7315 455.873 82.3335 477.237 89.4547C482.364 89.4547 467.491 111.484 467.491 111.484Z" fill="#12438F"/>
<path d="M466.824 111.485C471.951 111.485 476.107 107.23 476.107 101.981C476.107 96.7317 471.951 92.4766 466.824 92.4766C461.697 92.4766 457.541 96.7317 457.541 101.981C457.541 107.23 461.697 111.485 466.824 111.485Z" fill="#5AA9FD"/>
<mask id="mask17_2028_14914" style="mask-type:alpha" maskUnits="userSpaceOnUse" x="337" y="41" width="147" height="73">
<path d="M424.545 41.2033C428.13 41.44 459.768 48.2463 474.892 51.5313C479.641 52.5628 483.124 56.5914 483.356 61.4458C483.714 68.9625 484.052 80.4113 483.48 90.3263C483.237 94.5481 480.192 98.0072 476.101 99.0802C476.101 99.0802 473.45 89.9473 463.728 91.7149C454.006 93.4826 456.334 105.749 456.334 105.749L425.291 112.048C425.291 112.048 424.631 92.9777 408.636 93.6437C392.64 94.3098 394.494 113.382 394.494 113.382C394.494 113.382 351.702 113.955 343.123 110.393C334.544 106.832 337.944 90.645 340.534 87.4075C343.123 84.17 358.502 72.6769 361.092 70.5725C363.682 68.4682 386.897 48.8444 388.486 46.939C390.075 45.0336 419.813 40.8909 424.545 41.2033Z" fill="#C4C4C4"/>
</mask>
<g mask="url(#mask17_2028_14914)">
<path d="M429.24 40.3005C432.101 40.8585 482.523 32.3915 483.172 35.0051C483.821 37.6188 494.514 102.217 494.514 102.217C494.514 102.217 427.621 108.287 425.517 109.421C423.412 110.554 423.412 91.4528 408.844 93.7191C394.275 95.9853 395.897 114.005 393.627 114.601C383.753 117.191 351.702 113.953 343.123 110.392C334.544 106.831 337.944 90.6435 340.534 87.406C343.123 84.1685 358.502 72.6754 361.092 70.5711C363.682 68.4667 382.683 49.3158 388.486 46.9375C399.941 42.243 422.604 39.0061 429.24 40.3005Z" fill="#EA7D18"/>
<path d="M452.149 57.4922L467.469 60.0586V74.1998H452.149V57.4922Z" fill="#5AA9FD"/>
<path d="M461.847 117.807C461.847 126.469 422.006 110.384 414.383 110.384C406.76 110.384 374.455 104.249 374.455 104.249C398.856 77.0183 411.997 60.6089 433.672 29.7129C433.672 29.7129 461.847 109.144 461.847 117.807Z" fill="#EA7D18"/>
<path d="M435.44 47.5518L449.286 50.3357V100.628L435.44 102.779V47.5518Z" fill="#12438F"/>
<path d="M365.325 59.4691C383.303 52.0017 396.482 50.5993 416.882 51.2195L400.973 72.8259C379.853 69.1892 374.607 70.8973 354.789 72.8259L365.325 59.4691Z" fill="#12438F"/>
<path d="M388.138 56.2992L387.741 68.6277C374.219 67.037 361.891 69.8208 348.767 74.5932C348.767 74.5932 359.628 55.8984 363.613 55.8984C367.597 55.8984 388.138 56.2992 388.138 56.2992Z" fill="#5AA9FD"/>
<path d="M384.164 88.9109C384.164 88.9109 381.425 99.177 383.368 98.8532C384.449 98.6732 395.678 95.9121 401.073 100.521C405.38 104.2 400.506 114.123 393.465 117.679C372.161 128.44 359.962 123.345 355.911 123.345C346.792 123.345 329.849 100.345 329.849 91.9415C329.849 83.5379 326.395 84.819 335.514 84.819C344.633 84.819 384.164 88.9109 384.164 88.9109Z" fill="#5AA9FD"/>
<path d="M402.465 97.263C402.465 97.263 393.641 120.727 387.751 120.727C381.86 120.727 376.217 116.726 376.217 111.182C376.217 105.638 383.376 88.5137 383.376 88.5137L402.465 97.263Z" fill="#12438F"/>
<path d="M340.413 81.7529C346.776 85.7295 358.98 86.7349 369.047 86.5248C362.887 91.8659 361.727 96.0134 361.889 104.421C351.016 106.154 336.039 103.625 334.448 96.4671L340.413 81.7529Z" fill="#12438F"/>
<path d="M384.171 91.3305C384.171 93.4643 380.428 95.1941 375.81 95.1941C371.193 95.1941 366.839 95.6578 367.138 92.8759C367.437 90.0941 376.581 82.6758 382.776 82.6758C388.971 82.6758 384.171 89.1966 384.171 91.3305Z" fill="#12438F"/>
</g>
<path d="M420.335 51.1279L432.183 52.6921V75.9662L404.49 77.7339L420.335 51.1279Z" fill="#12438F"/>
<path d="M378.983 91.9774C381.019 91.9774 382.669 90.3269 382.669 88.2909C382.669 86.255 381.019 84.6045 378.983 84.6045C376.947 84.6045 375.296 86.255 375.296 88.2909C375.296 90.3269 376.947 91.9774 378.983 91.9774Z" fill="#EA7D18"/>
<path d="M378.992 90.3382C380.123 90.3382 381.04 89.4213 381.04 88.2902C381.04 87.1591 380.123 86.2422 378.992 86.2422C377.861 86.2422 376.944 87.1591 376.944 88.2902C376.944 89.4213 377.861 90.3382 378.992 90.3382Z" fill="#5AA9FD"/>
<path d="M373.254 94.434C374.385 94.434 375.302 93.517 375.302 92.3859C375.302 91.2548 374.385 90.3379 373.254 90.3379C372.123 90.3379 371.206 91.2548 371.206 92.3859C371.206 93.517 372.123 94.434 373.254 94.434Z" fill="#EA7D18"/>
<path d="M415.356 109.484C415.356 112.925 412.566 115.715 409.124 115.715C405.683 115.715 402.893 112.925 402.893 109.484C402.893 106.042 405.683 103.253 409.124 103.253C412.566 103.253 415.356 106.042 415.356 109.484Z" fill="#12438F"/>
<path d="M472.816 75.0353L488.342 73.8408L483.167 123.205H477.594L472.816 75.0353Z" fill="#12438F"/>
<path d="M483.573 119.622L483.175 123.205H477.602L477.203 119.622H483.573Z" fill="#5AA9FD"/>
<path d="M512.096 71.8675C511.498 72.355 509.737 73.874 508.39 74.114C506.908 74.3781 505.938 73.2748 505.938 73.2748L498.935 72.3095L501.011 67.1817L505.517 69.4395C505.517 69.4395 506.491 66.7667 508.055 66.4091C509.737 66.0246 511.095 66.973 512.213 68.1613C513.449 69.4755 513.353 70.8438 512.096 71.8675Z" fill="#EA7D18"/>
<path d="M515.115 69.0412C511.561 68.2948 509.718 67.6576 506.86 65.8533C506.86 65.8533 507.844 64.3883 508.675 63.6465C509.505 62.9047 511.953 62.4786 513.702 64.4367C515.45 66.3947 515.115 69.0412 515.115 69.0412Z" fill="#12438F"/>
<path d="M515.998 69.2698C516.219 70.0852 512.485 69.8738 509.877 68.6562C507.269 67.4386 506.263 66.3111 506.826 65.8077C507.39 65.3042 508.397 66.4317 510.471 67.6194C512.545 68.8071 515.776 68.4545 515.998 69.2698Z" fill="#12438F"/>
<path d="M482.562 75.2512L473.11 125.287H467.203C467.203 125.287 461.295 93.1427 461.295 81.2994C461.295 69.4563 461.886 58.2053 473.11 55.4564C484.334 52.7075 502.647 68.6422 502.647 68.6422L498.641 73.437L482.562 75.2512Z" fill="#12438F"/>
<path d="M473.638 121.611L473.24 125.194H467.268L466.471 121.611H473.638Z" fill="#5AA9FD"/>
<path d="M467.604 124.747V129.774H470.56V129.08C473.94 131.118 477.489 130.197 478.342 129.774C479.196 129.35 474.436 127.546 474.436 127.546L472.299 124.721L467.604 124.747Z" fill="#12438F"/>
<path d="M478.744 123.154V128.181H481.7V127.488C485.08 129.526 488.628 128.605 489.482 128.181C490.335 127.758 485.576 125.954 485.576 125.954L483.438 123.129L478.744 123.154Z" fill="#12438F"/>
<path d="M509.135 85.6983L499.684 73.6016L496.139 82.3992L508.262 88.0413L507.864 90.1622C507.864 90.1622 509.418 92.5508 511.049 92.1527C512.68 91.7546 512.68 90.097 512.68 90.097C512.68 90.097 512.167 87.3878 510.907 86.2481C510.311 85.7085 509.135 85.6983 509.135 85.6983Z" fill="#EA7D18"/>
<path d="M513.16 83.3996C513.41 82.789 513.117 82.0918 512.506 81.8423C511.896 81.5929 511.199 81.8856 510.949 82.4962L500.13 108.975C499.881 109.585 500.173 110.283 500.784 110.532C501.395 110.782 502.092 110.489 502.341 109.878L513.16 83.3996Z" fill="#12438F"/>
<path d="M503.246 101.094C503.925 102.148 505.699 99.811 506.289 100.911C506.396 101.109 506.941 102.025 507.086 102.901C507.165 103.383 505.891 103.3 506.79 105.493C506.605 106.73 505.09 108.198 503.901 108.475C501.538 109.025 500.716 103.3 500.716 103.3L488.478 93.9459C488.478 93.9459 489.967 90.5602 491.162 88.5697C492.356 86.5792 496.157 86.248 496.157 86.248C496.157 86.248 501.474 98.3447 503.246 101.094Z" fill="#EA7D18"/>
<path d="M499.11 68.2661C504.684 71.8494 496.324 86.5784 496.324 86.5784L497.919 89.7636C497.919 89.7636 492.386 93.4882 491.149 95.7351C480.403 88.1713 485.509 73.052 489.055 67.0037C493.71 66.711 493.537 64.6828 499.11 68.2661Z" fill="#5AA9FD"/>
<path d="M511.51 91.7494C511.51 92.3567 510.126 92.8517 509.147 92.8517C508.168 92.8517 507.375 92.3548 507.375 91.7474C507.358 91.4245 507.965 91.1976 507.965 91.1976C507.965 91.1976 505.604 90.6478 506.193 89.548C506.782 88.4482 507.965 90.0979 507.965 90.0979C507.965 90.0979 511.51 91.142 511.51 91.7494Z" fill="#EA7D18"/>
<path d="M501.19 70.5101C489.84 65.0182 489.839 69.4116 486.178 74.9037C486.178 74.9037 479.953 73.439 478.123 69.7777C476.292 66.1163 476.291 59.5261 482.516 58.7938C488.741 58.0615 501.19 70.5101 501.19 70.5101Z" fill="#5AA9FD"/>
<path d="M496.738 106.465C496.738 106.465 491.097 116.939 496.963 119.333C502.83 121.727 506.126 110.295 506.126 110.295L500.623 109.383L496.738 106.465Z" fill="#12438F"/>
<mask id="mask18_2028_14914" style="mask-type:alpha" maskUnits="userSpaceOnUse" x="-15" y="88" width="66" height="42">
<path d="M43.3776 96.9963C48.4918 107.225 36.5584 102.111 45.9346 109.782C55.3108 117.454 47.6394 127.682 39.968 128.535C32.2965 129.387 30.5917 124.273 24.6251 125.978C13.8144 131.131 0.793504 131.61 -6.50266 124.282C-9.34285 121.43 -18.2237 114.741 -13.267 106.252C-8.3104 97.7628 4.3137 103.548 4.3137 103.548C4.3137 103.548 6.31886 96.8554 11.6161 93.3845C24.6249 84.8608 38.2634 86.7677 43.3776 96.9963Z" fill="#EA7D18"/>
</mask>
<g mask="url(#mask18_2028_14914)">
<path d="M43.3778 96.9951C48.492 107.223 36.5587 102.109 45.9349 109.78C55.3111 117.452 47.6396 127.681 39.9682 128.533C32.2967 129.385 30.592 124.271 24.6253 125.976C13.8146 131.129 -9.32668 141.558 -13.2651 133.296C-17.2035 125.035 -14.8065 88.6303 -1.79774 80.1066C11.2112 71.5828 38.2636 86.7665 43.3778 96.9951Z" fill="#EA7D18"/>
</g>
<path d="M1267.54 94.9678H1264.45V140.81H1267.54V94.9678Z" fill="#12438F"/>
<mask id="mask19_2028_14914" style="mask-type:alpha" maskUnits="userSpaceOnUse" x="1236" y="83" width="55" height="44">
<path d="M1283.33 92.8544C1288.46 103.127 1276.48 97.9907 1285.89 105.696C1295.31 113.4 1287.61 123.673 1279.9 124.529C1272.2 125.385 1270.49 120.249 1264.49 121.961C1253.64 127.136 1241.91 128.546 1237.96 120.249C1234 111.951 1238.36 97.7875 1251.43 89.227C1264.49 80.6665 1278.19 82.5817 1283.33 92.8544Z" fill="#EA7D18"/>
</mask>
<g mask="url(#mask19_2028_14914)">
<path d="M1283.33 92.8544C1288.46 103.127 1276.48 97.9907 1285.89 105.696C1295.31 113.4 1287.61 123.673 1279.9 124.529C1272.2 125.385 1270.49 120.249 1264.49 121.961C1253.64 127.136 1241.91 128.546 1237.96 120.249C1234 111.951 1238.36 97.7875 1251.43 89.227C1264.49 80.6665 1278.19 82.5817 1283.33 92.8544Z" fill="#EA7D18"/>
</g>
<path d="M899.75 132.5L914.75 144.5L918.25 130L919.75 146L927.25 136.5C924.301 143.095 922.75 146 923.25 151.5H910.75C910.75 145.5 904.75 141 899.75 132.5Z" fill="#12438F"/>
<path d="M168.25 132.5L181.75 147L184.25 138L186.75 147L189.75 139.5C189.75 145.5 189.25 146 189.75 151.5H179.25C175.25 148.5 173.25 141 168.25 132.5Z" fill="#12438F"/>
<path d="M772.25 141L780.75 147.5L783.25 138.5L785.75 147.5L788.75 140C788.75 144.655 788.449 145.698 788.548 148.5C788.563 148.948 793.349 142.578 792.25 144C791.151 145.422 790.474 151.355 791.75 152H778.25C777.75 147 777.25 149.5 772.25 141Z" fill="#12438F"/>
</g>
</g>
<defs>
<linearGradient id="paint0_linear_2028_14914" x1="640.25" y1="34.6728" x2="640.25" y2="152" gradientUnits="userSpaceOnUse">
<stop stop-color="white" stop-opacity="0"/>
<stop offset="1" stop-color="#F8F8F8"/>
</linearGradient>
<linearGradient id="paint1_linear_2028_14914" x1="1154.75" y1="131" x2="1154.75" y2="159" gradientUnits="userSpaceOnUse">
<stop stop-color="#12438F" stop-opacity="0.16"/>
<stop offset="1" stop-color="#12438F" stop-opacity="0"/>
</linearGradient>
<linearGradient id="paint2_linear_2028_14914" x1="1266.75" y1="138" x2="1266.75" y2="172" gradientUnits="userSpaceOnUse">
<stop stop-color="#12438F" stop-opacity="0.16"/>
<stop offset="1" stop-color="#12438F" stop-opacity="0"/>
</linearGradient>
<linearGradient id="paint3_linear_2028_14914" x1="1015.25" y1="135" x2="1015.25" y2="163" gradientUnits="userSpaceOnUse">
<stop stop-color="#12438F" stop-opacity="0.16"/>
<stop offset="1" stop-color="#12438F" stop-opacity="0"/>
</linearGradient>
<linearGradient id="paint4_linear_2028_14914" x1="862.25" y1="133" x2="862.25" y2="161" gradientUnits="userSpaceOnUse">
<stop stop-color="#12438F" stop-opacity="0.16"/>
<stop offset="1" stop-color="#12438F" stop-opacity="0"/>
</linearGradient>
<linearGradient id="paint5_linear_2028_14914" x1="771.25" y1="123" x2="771.25" y2="159" gradientUnits="userSpaceOnUse">
<stop stop-color="#12438F" stop-opacity="0.16"/>
<stop offset="1" stop-color="#12438F" stop-opacity="0"/>
</linearGradient>
<linearGradient id="paint6_linear_2028_14914" x1="711.25" y1="126" x2="711.25" y2="161" gradientUnits="userSpaceOnUse">
<stop stop-color="#12438F" stop-opacity="0.16"/>
<stop offset="1" stop-color="#12438F" stop-opacity="0"/>
</linearGradient>
<linearGradient id="paint7_linear_2028_14914" x1="666.25" y1="127" x2="666.25" y2="160" gradientUnits="userSpaceOnUse">
<stop stop-color="#12438F" stop-opacity="0.16"/>
<stop offset="1" stop-color="#12438F" stop-opacity="0"/>
</linearGradient>
<linearGradient id="paint8_linear_2028_14914" x1="576.75" y1="113" x2="576.75" y2="161" gradientUnits="userSpaceOnUse">
<stop stop-color="#12438F" stop-opacity="0.16"/>
<stop offset="1" stop-color="#12438F" stop-opacity="0"/>
</linearGradient>
<linearGradient id="paint9_linear_2028_14914" x1="408.25" y1="105" x2="408.25" y2="164" gradientUnits="userSpaceOnUse">
<stop stop-color="#12438F" stop-opacity="0.16"/>
<stop offset="1" stop-color="#12438F" stop-opacity="0"/>
</linearGradient>
<linearGradient id="paint10_linear_2028_14914" x1="282.75" y1="134" x2="282.75" y2="160" gradientUnits="userSpaceOnUse">
<stop stop-color="#12438F" stop-opacity="0.16"/>
<stop offset="1" stop-color="#12438F" stop-opacity="0"/>
</linearGradient>
<linearGradient id="paint11_linear_2028_14914" x1="152.25" y1="120" x2="152.25" y2="158" gradientUnits="userSpaceOnUse">
<stop stop-color="#12438F" stop-opacity="0.16"/>
<stop offset="1" stop-color="#12438F" stop-opacity="0"/>
</linearGradient>
<linearGradient id="paint12_linear_2028_14914" x1="478.75" y1="129" x2="478.75" y2="161" gradientUnits="userSpaceOnUse">
<stop stop-color="#12438F" stop-opacity="0.16"/>
<stop offset="1" stop-color="#12438F" stop-opacity="0"/>
</linearGradient>
<linearGradient id="paint13_linear_2028_14914" x1="499.75" y1="120" x2="499.75" y2="162" gradientUnits="userSpaceOnUse">
<stop stop-color="#12438F" stop-opacity="0.16"/>
<stop offset="1" stop-color="#12438F" stop-opacity="0"/>
</linearGradient>
<clipPath id="clip0_2028_14914">
<rect width="1279" height="151" fill="white"/>
</clipPath>
</defs>
</svg>
