<svg width="42" height="52" viewBox="0 0 42 52" fill="none" xmlns="http://www.w3.org/2000/svg">
<g filter="url(#filter0_f_2043_21573)">
<path d="M30.6429 43.125C30.6429 44.7128 30.4657 46 23.6607 46C16.8558 46 6 43.125 6 43.125C6 43.125 16.8558 40.25 23.6607 40.25C30.4657 40.25 30.6429 41.5372 30.6429 43.125Z" fill="#004669" fill-opacity="0.3"/>
</g>
<g filter="url(#filter1_f_2043_21573)">
<ellipse cx="25.3041" cy="43.125" rx="5.33929" ry="2.875" fill="#004669" fill-opacity="0.4"/>
</g>
<path d="M25.7146 0C17.1087 0 10.1074 7.5151 10.1074 16.7524C10.1074 28.2161 24.0743 42.3245 24.6689 43.0353C25.2275 43.7031 26.2027 43.7019 26.7602 43.0353C27.3548 42.3245 41.3217 28.2161 41.3217 16.7524C41.3215 7.5151 34.3203 0 25.7146 0Z" fill="#004669"/>
<g clip-path="url(#clip0_2043_21573)">
<path fill-rule="evenodd" clip-rule="evenodd" d="M24.875 30.6457L21.6504 21.562H23.6382L24.275 23.4388H27.6133L28.2001 21.562H30.2498L27.0633 30.6457H24.875ZM25.9461 28.6125H25.9724L27.2124 25.0015H24.7823L25.9461 28.6125Z" fill="white"/>
<path fill-rule="evenodd" clip-rule="evenodd" d="M31.0294 15.7667C31.0294 11.3362 27.0189 6.93798 24.7057 6.58838C24.8516 7.05626 24.9528 7.64966 24.9528 8.41721C24.9528 10.823 20.8477 12.3634 20.8477 16.2602C20.8477 17.4483 21.2387 19.4861 22.4557 20.4916C22.3198 19.961 22.307 19.4063 22.4183 18.87C22.5296 18.3338 22.762 17.83 23.0978 17.3973C23.4336 16.9646 23.8639 16.6145 24.3558 16.3736C24.8477 16.1327 25.3882 16.0074 25.9359 16.0074C26.4836 16.0074 27.0241 16.1327 27.516 16.3736C28.0079 16.6145 28.4382 16.9646 28.774 17.3973C29.1098 17.83 29.3423 18.3338 29.4536 18.87C29.5649 19.4063 29.5521 19.961 29.4161 20.4916C29.8301 20.1498 31.0294 18.7324 31.0294 15.7667Z" fill="#006DAA"/>
<path opacity="0.6" fill-rule="evenodd" clip-rule="evenodd" d="M31.0294 15.7667C31.0294 11.3362 27.0189 6.93798 24.7051 6.58838C24.8516 7.05626 24.9535 7.64966 24.9535 8.41721C24.9535 10.823 20.8477 12.3634 20.8477 16.2602C20.8477 17.4483 21.2387 19.4861 22.4557 20.4916C22.3198 19.961 22.307 19.4063 22.4183 18.87C22.5296 18.3338 22.762 17.83 23.0978 17.3973C23.4336 16.9646 23.8639 16.6145 24.3558 16.3736C24.8477 16.1327 25.3882 16.0074 25.9359 16.0074C26.4836 16.0074 27.0241 16.1327 27.516 16.3736C28.0079 16.6145 28.4382 16.9646 28.774 17.3973C29.1098 17.83 29.3423 18.3338 29.4536 18.87C29.5649 19.4063 29.5521 19.961 29.4161 20.4916C29.8301 20.1498 31.0294 18.7324 31.0294 15.7667Z" fill="url(#paint0_radial_2043_21573)"/>
<path fill-rule="evenodd" clip-rule="evenodd" d="M31.0294 15.7667C31.0294 11.3362 27.0189 6.93798 24.7051 6.58838C24.8516 7.05626 24.9528 7.64966 24.9528 8.41721C24.9528 10.823 20.8477 12.3634 20.8477 16.2602C20.8477 17.4483 21.238 19.4861 22.4557 20.4916C22.6541 19.7193 23.1037 19.035 23.7338 18.5463C24.3639 18.0577 25.1386 17.7924 25.9359 17.7924C26.7333 17.7924 27.508 18.0577 28.138 18.5463C28.7681 19.035 29.2177 19.7193 29.4161 20.4916C29.8301 20.1498 31.0294 18.7324 31.0294 15.7667Z" fill="white"/>
<path fill-rule="evenodd" clip-rule="evenodd" d="M25.9292 17.8078C27.3158 17.8078 28.4625 18.8185 28.7221 19.1103C29.3292 18.4292 29.6642 17.5485 29.6631 16.6361C29.6624 15.9503 29.4728 15.2778 29.1152 14.6926C28.7576 14.1073 28.2458 13.6318 27.6358 13.3182C27.6358 13.3182 26.3123 12.5618 25.9128 11.9316C25.5717 12.4948 25.0427 12.8779 24.3212 13.2394C24.3212 13.2394 23.5871 13.702 23.2895 14.0003C22.9425 14.346 22.6673 14.7568 22.4795 15.2091C22.2918 15.6614 22.1952 16.1464 22.1953 16.6361C22.1953 17.5942 22.5574 18.4682 23.1521 19.128C23.3604 18.8908 24.542 17.8072 25.9292 17.8072V17.8078Z" fill="#00AEE6"/>
</g>
<defs>
<filter id="filter0_f_2043_21573" x="0" y="34.25" width="36.6426" height="17.75" filterUnits="userSpaceOnUse" color-interpolation-filters="sRGB">
<feFlood flood-opacity="0" result="BackgroundImageFix"/>
<feBlend mode="normal" in="SourceGraphic" in2="BackgroundImageFix" result="shape"/>
<feGaussianBlur stdDeviation="3" result="effect1_foregroundBlur_2043_21573"/>
</filter>
<filter id="filter1_f_2043_21573" x="13.9648" y="34.25" width="22.6777" height="17.75" filterUnits="userSpaceOnUse" color-interpolation-filters="sRGB">
<feFlood flood-opacity="0" result="BackgroundImageFix"/>
<feBlend mode="normal" in="SourceGraphic" in2="BackgroundImageFix" result="shape"/>
<feGaussianBlur stdDeviation="3" result="effect1_foregroundBlur_2043_21573"/>
</filter>
<radialGradient id="paint0_radial_2043_21573" cx="0" cy="0" r="1" gradientUnits="userSpaceOnUse" gradientTransform="translate(436.457 12.0213) scale(1467.67 1467.62)">
<stop stop-color="#231F20" stop-opacity="0"/>
<stop offset="0.8581" stop-color="#231F20" stop-opacity="0.858"/>
<stop offset="1" stop-color="#231F20"/>
</radialGradient>
<clipPath id="clip0_2043_21573">
<rect width="13.9643" height="26.2857" fill="white" transform="translate(19.1426 6.57129)"/>
</clipPath>
</defs>
</svg>
